G75*
%MOIN*%
%OFA0B0*%
%FSLAX25Y25*%
%IPPOS*%
%LPD*%
%AMOC8*
5,1,8,0,0,1.08239X$1,22.5*
%
%ADD10R,0.05118X0.06299*%
%ADD11R,0.06299X0.05118*%
%ADD12R,0.05906X0.07874*%
%ADD13R,0.09843X0.15748*%
%ADD14R,0.05118X0.05906*%
%ADD15R,0.05906X0.05118*%
%ADD16C,0.01969*%
%ADD17R,0.20000X0.09000*%
D10*
X0074569Y0046800D03*
X0082443Y0046800D03*
X0072443Y0081800D03*
X0064569Y0081800D03*
D11*
X0108506Y0045737D03*
X0108506Y0037863D03*
D12*
X0117601Y0121800D03*
X0129412Y0121800D03*
X0187601Y0121800D03*
X0199412Y0121800D03*
D13*
X0213506Y0092548D03*
X0213506Y0061052D03*
X0108506Y0061052D03*
X0108506Y0092548D03*
D14*
X0097246Y0036800D03*
X0089766Y0036800D03*
D15*
X0073506Y0058060D03*
X0073506Y0065540D03*
D16*
X0083782Y0103099D02*
X0091656Y0103099D01*
X0083782Y0103099D02*
X0083782Y0140501D01*
X0091656Y0140501D01*
X0091656Y0103099D01*
X0091656Y0105067D02*
X0083782Y0105067D01*
X0083782Y0107035D02*
X0091656Y0107035D01*
X0091656Y0109003D02*
X0083782Y0109003D01*
X0083782Y0110971D02*
X0091656Y0110971D01*
X0091656Y0112939D02*
X0083782Y0112939D01*
X0083782Y0114907D02*
X0091656Y0114907D01*
X0091656Y0116875D02*
X0083782Y0116875D01*
X0083782Y0118843D02*
X0091656Y0118843D01*
X0091656Y0120811D02*
X0083782Y0120811D01*
X0083782Y0122779D02*
X0091656Y0122779D01*
X0091656Y0124747D02*
X0083782Y0124747D01*
X0083782Y0126715D02*
X0091656Y0126715D01*
X0091656Y0128683D02*
X0083782Y0128683D01*
X0083782Y0130651D02*
X0091656Y0130651D01*
X0091656Y0132619D02*
X0083782Y0132619D01*
X0083782Y0134587D02*
X0091656Y0134587D01*
X0091656Y0136555D02*
X0083782Y0136555D01*
X0083782Y0138523D02*
X0091656Y0138523D01*
X0091656Y0140491D02*
X0083782Y0140491D01*
X0101498Y0103099D02*
X0109372Y0103099D01*
X0101498Y0103099D02*
X0101498Y0140501D01*
X0109372Y0140501D01*
X0109372Y0103099D01*
X0109372Y0105067D02*
X0101498Y0105067D01*
X0101498Y0107035D02*
X0109372Y0107035D01*
X0109372Y0109003D02*
X0101498Y0109003D01*
X0101498Y0110971D02*
X0109372Y0110971D01*
X0109372Y0112939D02*
X0101498Y0112939D01*
X0101498Y0114907D02*
X0109372Y0114907D01*
X0109372Y0116875D02*
X0101498Y0116875D01*
X0101498Y0118843D02*
X0109372Y0118843D01*
X0109372Y0120811D02*
X0101498Y0120811D01*
X0101498Y0122779D02*
X0109372Y0122779D01*
X0109372Y0124747D02*
X0101498Y0124747D01*
X0101498Y0126715D02*
X0109372Y0126715D01*
X0109372Y0128683D02*
X0101498Y0128683D01*
X0101498Y0130651D02*
X0109372Y0130651D01*
X0109372Y0132619D02*
X0101498Y0132619D01*
X0101498Y0134587D02*
X0109372Y0134587D01*
X0109372Y0136555D02*
X0101498Y0136555D01*
X0101498Y0138523D02*
X0109372Y0138523D01*
X0109372Y0140491D02*
X0101498Y0140491D01*
X0207798Y0103099D02*
X0215672Y0103099D01*
X0207798Y0103099D02*
X0207798Y0140501D01*
X0215672Y0140501D01*
X0215672Y0103099D01*
X0215672Y0105067D02*
X0207798Y0105067D01*
X0207798Y0107035D02*
X0215672Y0107035D01*
X0215672Y0109003D02*
X0207798Y0109003D01*
X0207798Y0110971D02*
X0215672Y0110971D01*
X0215672Y0112939D02*
X0207798Y0112939D01*
X0207798Y0114907D02*
X0215672Y0114907D01*
X0215672Y0116875D02*
X0207798Y0116875D01*
X0207798Y0118843D02*
X0215672Y0118843D01*
X0215672Y0120811D02*
X0207798Y0120811D01*
X0207798Y0122779D02*
X0215672Y0122779D01*
X0215672Y0124747D02*
X0207798Y0124747D01*
X0207798Y0126715D02*
X0215672Y0126715D01*
X0215672Y0128683D02*
X0207798Y0128683D01*
X0207798Y0130651D02*
X0215672Y0130651D01*
X0215672Y0132619D02*
X0207798Y0132619D01*
X0207798Y0134587D02*
X0215672Y0134587D01*
X0215672Y0136555D02*
X0207798Y0136555D01*
X0207798Y0138523D02*
X0215672Y0138523D01*
X0215672Y0140491D02*
X0207798Y0140491D01*
X0255042Y0103099D02*
X0262916Y0103099D01*
X0255042Y0103099D02*
X0255042Y0140501D01*
X0262916Y0140501D01*
X0262916Y0103099D01*
X0262916Y0105067D02*
X0255042Y0105067D01*
X0255042Y0107035D02*
X0262916Y0107035D01*
X0262916Y0109003D02*
X0255042Y0109003D01*
X0255042Y0110971D02*
X0262916Y0110971D01*
X0262916Y0112939D02*
X0255042Y0112939D01*
X0255042Y0114907D02*
X0262916Y0114907D01*
X0262916Y0116875D02*
X0255042Y0116875D01*
X0255042Y0118843D02*
X0262916Y0118843D01*
X0262916Y0120811D02*
X0255042Y0120811D01*
X0255042Y0122779D02*
X0262916Y0122779D01*
X0262916Y0124747D02*
X0255042Y0124747D01*
X0255042Y0126715D02*
X0262916Y0126715D01*
X0262916Y0128683D02*
X0255042Y0128683D01*
X0255042Y0130651D02*
X0262916Y0130651D01*
X0262916Y0132619D02*
X0255042Y0132619D01*
X0255042Y0134587D02*
X0262916Y0134587D01*
X0262916Y0136555D02*
X0255042Y0136555D01*
X0255042Y0138523D02*
X0262916Y0138523D01*
X0262916Y0140491D02*
X0255042Y0140491D01*
D17*
X0293406Y0099200D03*
X0293406Y0081800D03*
X0293406Y0064400D03*
X0048606Y0064400D03*
X0048606Y0081800D03*
X0048606Y0099200D03*
M02*
