G75*
%MOIN*%
%OFA0B0*%
%FSLAX25Y25*%
%IPPOS*%
%LPD*%
%AMOC8*
5,1,8,0,0,1.08239X$1,22.5*
%
%ADD10R,0.05118X0.06299*%
%ADD11R,0.06299X0.05118*%
%ADD12R,0.05906X0.07874*%
%ADD13R,0.09843X0.15748*%
%ADD14R,0.05118X0.05906*%
%ADD15R,0.05906X0.05118*%
%ADD16C,0.01969*%
%ADD17R,0.20000X0.09000*%
%ADD18C,0.07800*%
%ADD19C,0.01600*%
%ADD20C,0.08600*%
%ADD21C,0.02581*%
%ADD22C,0.23622*%
%ADD23C,0.07874*%
D10*
X0074569Y0046800D03*
X0082443Y0046800D03*
X0072443Y0081800D03*
X0064569Y0081800D03*
D11*
X0108506Y0045737D03*
X0108506Y0037863D03*
D12*
X0117601Y0121800D03*
X0129412Y0121800D03*
X0187601Y0121800D03*
X0199412Y0121800D03*
D13*
X0213506Y0092548D03*
X0213506Y0061052D03*
X0108506Y0061052D03*
X0108506Y0092548D03*
D14*
X0097246Y0036800D03*
X0089766Y0036800D03*
D15*
X0073506Y0058060D03*
X0073506Y0065540D03*
D16*
X0083782Y0103099D02*
X0091656Y0103099D01*
X0083782Y0103099D02*
X0083782Y0140501D01*
X0091656Y0140501D01*
X0091656Y0103099D01*
X0091656Y0105067D02*
X0083782Y0105067D01*
X0083782Y0107035D02*
X0091656Y0107035D01*
X0091656Y0109003D02*
X0083782Y0109003D01*
X0083782Y0110971D02*
X0091656Y0110971D01*
X0091656Y0112939D02*
X0083782Y0112939D01*
X0083782Y0114907D02*
X0091656Y0114907D01*
X0091656Y0116875D02*
X0083782Y0116875D01*
X0083782Y0118843D02*
X0091656Y0118843D01*
X0091656Y0120811D02*
X0083782Y0120811D01*
X0083782Y0122779D02*
X0091656Y0122779D01*
X0091656Y0124747D02*
X0083782Y0124747D01*
X0083782Y0126715D02*
X0091656Y0126715D01*
X0091656Y0128683D02*
X0083782Y0128683D01*
X0083782Y0130651D02*
X0091656Y0130651D01*
X0091656Y0132619D02*
X0083782Y0132619D01*
X0083782Y0134587D02*
X0091656Y0134587D01*
X0091656Y0136555D02*
X0083782Y0136555D01*
X0083782Y0138523D02*
X0091656Y0138523D01*
X0091656Y0140491D02*
X0083782Y0140491D01*
X0101498Y0103099D02*
X0109372Y0103099D01*
X0101498Y0103099D02*
X0101498Y0140501D01*
X0109372Y0140501D01*
X0109372Y0103099D01*
X0109372Y0105067D02*
X0101498Y0105067D01*
X0101498Y0107035D02*
X0109372Y0107035D01*
X0109372Y0109003D02*
X0101498Y0109003D01*
X0101498Y0110971D02*
X0109372Y0110971D01*
X0109372Y0112939D02*
X0101498Y0112939D01*
X0101498Y0114907D02*
X0109372Y0114907D01*
X0109372Y0116875D02*
X0101498Y0116875D01*
X0101498Y0118843D02*
X0109372Y0118843D01*
X0109372Y0120811D02*
X0101498Y0120811D01*
X0101498Y0122779D02*
X0109372Y0122779D01*
X0109372Y0124747D02*
X0101498Y0124747D01*
X0101498Y0126715D02*
X0109372Y0126715D01*
X0109372Y0128683D02*
X0101498Y0128683D01*
X0101498Y0130651D02*
X0109372Y0130651D01*
X0109372Y0132619D02*
X0101498Y0132619D01*
X0101498Y0134587D02*
X0109372Y0134587D01*
X0109372Y0136555D02*
X0101498Y0136555D01*
X0101498Y0138523D02*
X0109372Y0138523D01*
X0109372Y0140491D02*
X0101498Y0140491D01*
X0207798Y0103099D02*
X0215672Y0103099D01*
X0207798Y0103099D02*
X0207798Y0140501D01*
X0215672Y0140501D01*
X0215672Y0103099D01*
X0215672Y0105067D02*
X0207798Y0105067D01*
X0207798Y0107035D02*
X0215672Y0107035D01*
X0215672Y0109003D02*
X0207798Y0109003D01*
X0207798Y0110971D02*
X0215672Y0110971D01*
X0215672Y0112939D02*
X0207798Y0112939D01*
X0207798Y0114907D02*
X0215672Y0114907D01*
X0215672Y0116875D02*
X0207798Y0116875D01*
X0207798Y0118843D02*
X0215672Y0118843D01*
X0215672Y0120811D02*
X0207798Y0120811D01*
X0207798Y0122779D02*
X0215672Y0122779D01*
X0215672Y0124747D02*
X0207798Y0124747D01*
X0207798Y0126715D02*
X0215672Y0126715D01*
X0215672Y0128683D02*
X0207798Y0128683D01*
X0207798Y0130651D02*
X0215672Y0130651D01*
X0215672Y0132619D02*
X0207798Y0132619D01*
X0207798Y0134587D02*
X0215672Y0134587D01*
X0215672Y0136555D02*
X0207798Y0136555D01*
X0207798Y0138523D02*
X0215672Y0138523D01*
X0215672Y0140491D02*
X0207798Y0140491D01*
X0255042Y0103099D02*
X0262916Y0103099D01*
X0255042Y0103099D02*
X0255042Y0140501D01*
X0262916Y0140501D01*
X0262916Y0103099D01*
X0262916Y0105067D02*
X0255042Y0105067D01*
X0255042Y0107035D02*
X0262916Y0107035D01*
X0262916Y0109003D02*
X0255042Y0109003D01*
X0255042Y0110971D02*
X0262916Y0110971D01*
X0262916Y0112939D02*
X0255042Y0112939D01*
X0255042Y0114907D02*
X0262916Y0114907D01*
X0262916Y0116875D02*
X0255042Y0116875D01*
X0255042Y0118843D02*
X0262916Y0118843D01*
X0262916Y0120811D02*
X0255042Y0120811D01*
X0255042Y0122779D02*
X0262916Y0122779D01*
X0262916Y0124747D02*
X0255042Y0124747D01*
X0255042Y0126715D02*
X0262916Y0126715D01*
X0262916Y0128683D02*
X0255042Y0128683D01*
X0255042Y0130651D02*
X0262916Y0130651D01*
X0262916Y0132619D02*
X0255042Y0132619D01*
X0255042Y0134587D02*
X0262916Y0134587D01*
X0262916Y0136555D02*
X0255042Y0136555D01*
X0255042Y0138523D02*
X0262916Y0138523D01*
X0262916Y0140491D02*
X0255042Y0140491D01*
D17*
X0293406Y0099200D03*
X0293406Y0081800D03*
X0293406Y0064400D03*
X0048606Y0064400D03*
X0048606Y0081800D03*
X0048606Y0099200D03*
D18*
X0133906Y0040700D02*
X0133906Y0032900D01*
X0153706Y0032900D02*
X0153706Y0040700D01*
X0173306Y0040700D02*
X0173306Y0032900D01*
X0193106Y0032900D02*
X0193106Y0040700D01*
D19*
X0041706Y0058100D02*
X0041706Y0005000D01*
X0300228Y0005000D01*
X0300228Y0058100D01*
X0294206Y0058100D01*
X0294206Y0063600D01*
X0292606Y0063600D01*
X0281606Y0063600D01*
X0281606Y0059663D01*
X0281729Y0059205D01*
X0281966Y0058795D01*
X0282301Y0058460D01*
X0282712Y0058223D01*
X0283169Y0058100D01*
X0292606Y0058100D01*
X0292606Y0063600D01*
X0292606Y0065200D01*
X0281606Y0065200D01*
X0281606Y0069137D01*
X0281729Y0069595D01*
X0281966Y0070005D01*
X0282301Y0070340D01*
X0282712Y0070577D01*
X0283169Y0070700D01*
X0292606Y0070700D01*
X0292606Y0065200D01*
X0294206Y0065200D01*
X0294206Y0070700D01*
X0300228Y0070700D01*
X0300228Y0074100D01*
X0282770Y0074100D01*
X0282287Y0074300D01*
X0275408Y0074300D01*
X0269366Y0075679D01*
X0269366Y0075679D01*
X0263783Y0078368D01*
X0263783Y0078368D01*
X0258938Y0082232D01*
X0258938Y0082232D01*
X0255074Y0087077D01*
X0255074Y0087077D01*
X0252385Y0092660D01*
X0252385Y0092660D01*
X0251006Y0098701D01*
X0251006Y0101908D01*
X0250857Y0102267D01*
X0250857Y0137301D01*
X0219856Y0137301D01*
X0219856Y0103294D01*
X0220240Y0103135D01*
X0221140Y0102235D01*
X0221628Y0101059D01*
X0221628Y0084037D01*
X0221140Y0082861D01*
X0220240Y0081961D01*
X0219064Y0081474D01*
X0207949Y0081474D01*
X0206772Y0081961D01*
X0205872Y0082861D01*
X0205517Y0083718D01*
X0180643Y0058844D01*
X0180643Y0035580D01*
X0180406Y0035008D01*
X0180406Y0031488D01*
X0179325Y0028878D01*
X0177328Y0026881D01*
X0174719Y0025800D01*
X0171894Y0025800D01*
X0169284Y0026881D01*
X0167287Y0028878D01*
X0166206Y0031488D01*
X0166206Y0042112D01*
X0166369Y0042506D01*
X0166369Y0063220D01*
X0167456Y0065843D01*
X0169464Y0067850D01*
X0169464Y0067850D01*
X0200212Y0098598D01*
X0202835Y0099685D01*
X0204598Y0099685D01*
X0204598Y0100382D01*
X0204250Y0100729D01*
X0203613Y0102267D01*
X0203613Y0114663D01*
X0195823Y0114663D01*
X0194646Y0115150D01*
X0193746Y0116050D01*
X0193259Y0117226D01*
X0193259Y0118004D01*
X0192354Y0120190D01*
X0192354Y0117626D01*
X0192231Y0117168D01*
X0191994Y0116758D01*
X0191659Y0116423D01*
X0191248Y0116186D01*
X0190791Y0116063D01*
X0188277Y0116063D01*
X0188277Y0121124D01*
X0186924Y0121124D01*
X0182848Y0121124D01*
X0182848Y0117626D01*
X0182971Y0117168D01*
X0183208Y0116758D01*
X0183543Y0116423D01*
X0183953Y0116186D01*
X0184411Y0116063D01*
X0186924Y0116063D01*
X0186924Y0121124D01*
X0186924Y0122476D01*
X0182848Y0122476D01*
X0182848Y0125974D01*
X0182971Y0126432D01*
X0183208Y0126842D01*
X0183543Y0127177D01*
X0183953Y0127414D01*
X0184411Y0127537D01*
X0186924Y0127537D01*
X0186924Y0122476D01*
X0188277Y0122476D01*
X0188277Y0127537D01*
X0190791Y0127537D01*
X0191248Y0127414D01*
X0191659Y0127177D01*
X0191994Y0126842D01*
X0192231Y0126432D01*
X0192354Y0125974D01*
X0192354Y0123410D01*
X0193259Y0125596D01*
X0193259Y0126374D01*
X0193746Y0127550D01*
X0194646Y0128450D01*
X0195823Y0128937D01*
X0203613Y0128937D01*
X0203613Y0137301D01*
X0113557Y0137301D01*
X0113557Y0128937D01*
X0121190Y0128937D01*
X0122366Y0128450D01*
X0123266Y0127550D01*
X0123754Y0126374D01*
X0123754Y0125596D01*
X0124659Y0123410D01*
X0124659Y0125974D01*
X0124782Y0126432D01*
X0125019Y0126842D01*
X0125354Y0127177D01*
X0125764Y0127414D01*
X0126222Y0127537D01*
X0128735Y0127537D01*
X0128735Y0122476D01*
X0130088Y0122476D01*
X0134165Y0122476D01*
X0134165Y0125974D01*
X0134042Y0126432D01*
X0133805Y0126842D01*
X0133470Y0127177D01*
X0133059Y0127414D01*
X0132602Y0127537D01*
X0130088Y0127537D01*
X0130088Y0122476D01*
X0130088Y0121124D01*
X0134165Y0121124D01*
X0134165Y0117626D01*
X0134042Y0117168D01*
X0133805Y0116758D01*
X0133470Y0116423D01*
X0133059Y0116186D01*
X0132602Y0116063D01*
X0130088Y0116063D01*
X0130088Y0121124D01*
X0128735Y0121124D01*
X0128735Y0116063D01*
X0126222Y0116063D01*
X0125764Y0116186D01*
X0125354Y0116423D01*
X0125019Y0116758D01*
X0124782Y0117168D01*
X0124659Y0117626D01*
X0124659Y0120190D01*
X0123754Y0118004D01*
X0123754Y0117226D01*
X0123266Y0116050D01*
X0122366Y0115150D01*
X0121190Y0114663D01*
X0115643Y0114663D01*
X0115643Y0102732D01*
X0116140Y0102235D01*
X0116628Y0101059D01*
X0116628Y0099685D01*
X0119178Y0099685D01*
X0121801Y0098598D01*
X0157549Y0062850D01*
X0159557Y0060843D01*
X0160643Y0058220D01*
X0160643Y0042506D01*
X0160806Y0042112D01*
X0160806Y0031488D01*
X0159725Y0028878D01*
X0157728Y0026881D01*
X0155119Y0025800D01*
X0152294Y0025800D01*
X0149684Y0026881D01*
X0147687Y0028878D01*
X0146606Y0031488D01*
X0146606Y0035008D01*
X0146369Y0035580D01*
X0146369Y0053844D01*
X0116495Y0083718D01*
X0116140Y0082861D01*
X0115240Y0081961D01*
X0114064Y0081474D01*
X0102949Y0081474D01*
X0101772Y0081961D01*
X0100872Y0082861D01*
X0100385Y0084037D01*
X0100385Y0099031D01*
X0099128Y0099552D01*
X0097951Y0100729D01*
X0097314Y0102267D01*
X0097314Y0137301D01*
X0095840Y0137301D01*
X0095840Y0102267D01*
X0095203Y0100729D01*
X0094026Y0099552D01*
X0092488Y0098915D01*
X0091719Y0098915D01*
X0091719Y0094538D01*
X0090405Y0089635D01*
X0090405Y0089635D01*
X0087868Y0085240D01*
X0087868Y0085240D01*
X0084279Y0081651D01*
X0084279Y0081651D01*
X0079883Y0079114D01*
X0079883Y0079114D01*
X0078202Y0078663D01*
X0078202Y0078014D01*
X0077715Y0076838D01*
X0076815Y0075938D01*
X0076443Y0075784D01*
X0076443Y0071299D01*
X0077096Y0071299D01*
X0078272Y0070812D01*
X0079172Y0069912D01*
X0079659Y0068736D01*
X0079659Y0062345D01*
X0079433Y0061800D01*
X0079659Y0061255D01*
X0079659Y0054864D01*
X0079172Y0053688D01*
X0078379Y0052895D01*
X0078941Y0052662D01*
X0079841Y0051762D01*
X0079846Y0051750D01*
X0081964Y0051750D01*
X0081964Y0047280D01*
X0082923Y0047280D01*
X0082923Y0051750D01*
X0085239Y0051750D01*
X0085697Y0051627D01*
X0086108Y0051390D01*
X0086443Y0051055D01*
X0086680Y0050644D01*
X0086802Y0050187D01*
X0086802Y0047280D01*
X0082923Y0047280D01*
X0082923Y0046320D01*
X0082923Y0041850D01*
X0084779Y0041850D01*
X0084494Y0041565D01*
X0084177Y0040800D01*
X0078609Y0040800D01*
X0078941Y0040938D01*
X0079841Y0041838D01*
X0079846Y0041850D01*
X0081964Y0041850D01*
X0081964Y0046320D01*
X0082923Y0046320D01*
X0086802Y0046320D01*
X0086802Y0043413D01*
X0086680Y0042956D01*
X0086678Y0042953D01*
X0092962Y0042953D01*
X0093506Y0042727D01*
X0094051Y0042953D01*
X0100442Y0042953D01*
X0101618Y0042466D01*
X0102411Y0041673D01*
X0102644Y0042235D01*
X0103544Y0043135D01*
X0103557Y0043140D01*
X0103557Y0045257D01*
X0108027Y0045257D01*
X0108027Y0046217D01*
X0108027Y0050096D01*
X0105120Y0050096D01*
X0104662Y0049973D01*
X0104251Y0049736D01*
X0103916Y0049401D01*
X0103679Y0048991D01*
X0103557Y0048533D01*
X0103557Y0046217D01*
X0108027Y0046217D01*
X0108986Y0046217D01*
X0108986Y0050096D01*
X0111893Y0050096D01*
X0112351Y0049973D01*
X0112761Y0049736D01*
X0113096Y0049401D01*
X0113333Y0048991D01*
X0113456Y0048533D01*
X0113456Y0046217D01*
X0108986Y0046217D01*
X0108986Y0045257D01*
X0113456Y0045257D01*
X0113456Y0043140D01*
X0113469Y0043135D01*
X0114369Y0042235D01*
X0114856Y0041059D01*
X0114856Y0040800D01*
X0126806Y0040800D01*
X0126806Y0042112D01*
X0127887Y0044722D01*
X0129884Y0046719D01*
X0132494Y0047800D01*
X0135319Y0047800D01*
X0137928Y0046719D01*
X0139925Y0044722D01*
X0141006Y0042112D01*
X0141006Y0031488D01*
X0139925Y0028878D01*
X0137928Y0026881D01*
X0135319Y0025800D01*
X0132494Y0025800D01*
X0129884Y0026881D01*
X0127887Y0028878D01*
X0126806Y0031488D01*
X0126806Y0032800D01*
X0113677Y0032800D01*
X0113469Y0032591D01*
X0112292Y0032104D01*
X0104720Y0032104D01*
X0103544Y0032591D01*
X0103335Y0032800D01*
X0102835Y0032800D01*
X0102518Y0032035D01*
X0101618Y0031134D01*
X0100442Y0030647D01*
X0094051Y0030647D01*
X0093506Y0030873D01*
X0092962Y0030647D01*
X0086571Y0030647D01*
X0085394Y0031134D01*
X0084494Y0032035D01*
X0084177Y0032800D01*
X0073774Y0032800D01*
X0072303Y0033409D01*
X0071178Y0034534D01*
X0070569Y0036004D01*
X0070569Y0040784D01*
X0070198Y0040938D01*
X0069297Y0041838D01*
X0068810Y0043014D01*
X0068810Y0050586D01*
X0069297Y0051762D01*
X0069506Y0051971D01*
X0069506Y0052471D01*
X0068741Y0052788D01*
X0067841Y0053688D01*
X0067354Y0054864D01*
X0067354Y0061255D01*
X0067579Y0061800D01*
X0067354Y0062345D01*
X0067354Y0068736D01*
X0067841Y0069912D01*
X0068443Y0070514D01*
X0068443Y0075731D01*
X0067765Y0075450D01*
X0061374Y0075450D01*
X0061309Y0075477D01*
X0060419Y0074587D01*
X0059243Y0074100D01*
X0041706Y0074100D01*
X0041706Y0070700D01*
X0047806Y0070700D01*
X0047806Y0065200D01*
X0049406Y0065200D01*
X0049406Y0070700D01*
X0058843Y0070700D01*
X0059301Y0070577D01*
X0059712Y0070340D01*
X0060047Y0070005D01*
X0060284Y0069595D01*
X0060406Y0069137D01*
X0060406Y0065200D01*
X0049406Y0065200D01*
X0049406Y0063600D01*
X0049406Y0058100D01*
X0058843Y0058100D01*
X0059301Y0058223D01*
X0059712Y0058460D01*
X0060047Y0058795D01*
X0060284Y0059205D01*
X0060406Y0059663D01*
X0060406Y0063600D01*
X0049406Y0063600D01*
X0047806Y0063600D01*
X0047806Y0058100D01*
X0041706Y0058100D01*
X0041706Y0057748D02*
X0067354Y0057748D01*
X0067354Y0059346D02*
X0060321Y0059346D01*
X0060406Y0060945D02*
X0067354Y0060945D01*
X0067354Y0062543D02*
X0060406Y0062543D01*
X0060406Y0065740D02*
X0067354Y0065740D01*
X0067354Y0064142D02*
X0049406Y0064142D01*
X0049406Y0065740D02*
X0047806Y0065740D01*
X0047806Y0067339D02*
X0049406Y0067339D01*
X0049406Y0068937D02*
X0047806Y0068937D01*
X0047806Y0070536D02*
X0049406Y0070536D01*
X0041706Y0072134D02*
X0068443Y0072134D01*
X0068443Y0070536D02*
X0059373Y0070536D01*
X0060406Y0068937D02*
X0067437Y0068937D01*
X0067354Y0067339D02*
X0060406Y0067339D01*
X0068443Y0073733D02*
X0041706Y0073733D01*
X0048606Y0081800D02*
X0064569Y0081800D01*
X0061374Y0088150D02*
X0061309Y0088123D01*
X0060419Y0089013D01*
X0059243Y0089500D01*
X0041706Y0089500D01*
X0041706Y0092900D01*
X0047806Y0092900D01*
X0047806Y0098400D01*
X0049406Y0098400D01*
X0049406Y0092900D01*
X0058843Y0092900D01*
X0059301Y0093023D01*
X0059712Y0093260D01*
X0060047Y0093595D01*
X0060284Y0094005D01*
X0060406Y0094463D01*
X0060406Y0098400D01*
X0049406Y0098400D01*
X0049406Y0100000D01*
X0047806Y0100000D01*
X0047806Y0105500D01*
X0041706Y0105500D01*
X0041706Y0137301D01*
X0079598Y0137301D01*
X0079598Y0102267D01*
X0080235Y0100729D01*
X0081412Y0099552D01*
X0082950Y0098915D01*
X0083719Y0098915D01*
X0083719Y0097076D01*
X0083622Y0095604D01*
X0082861Y0092761D01*
X0081389Y0090211D01*
X0079307Y0088130D01*
X0077431Y0087047D01*
X0076815Y0087662D01*
X0075639Y0088150D01*
X0069248Y0088150D01*
X0068506Y0087842D01*
X0067765Y0088150D01*
X0061374Y0088150D01*
X0058900Y0092915D02*
X0082902Y0092915D01*
X0083330Y0094514D02*
X0060406Y0094514D01*
X0060406Y0096112D02*
X0083656Y0096112D01*
X0083719Y0097711D02*
X0060406Y0097711D01*
X0060406Y0100000D02*
X0060406Y0103937D01*
X0060284Y0104395D01*
X0060047Y0104805D01*
X0059712Y0105140D01*
X0059301Y0105377D01*
X0058843Y0105500D01*
X0049406Y0105500D01*
X0049406Y0100000D01*
X0060406Y0100000D01*
X0060406Y0100908D02*
X0080161Y0100908D01*
X0079598Y0102506D02*
X0060406Y0102506D01*
X0060361Y0104105D02*
X0079598Y0104105D01*
X0079598Y0105703D02*
X0041706Y0105703D01*
X0041706Y0107302D02*
X0079598Y0107302D01*
X0079598Y0108900D02*
X0041706Y0108900D01*
X0041706Y0110499D02*
X0079598Y0110499D01*
X0079598Y0112097D02*
X0041706Y0112097D01*
X0041706Y0113696D02*
X0079598Y0113696D01*
X0079598Y0115294D02*
X0041706Y0115294D01*
X0041706Y0116893D02*
X0079598Y0116893D01*
X0079598Y0118491D02*
X0041706Y0118491D01*
X0041706Y0120090D02*
X0079598Y0120090D01*
X0079598Y0121688D02*
X0041706Y0121688D01*
X0041706Y0123287D02*
X0079598Y0123287D01*
X0079598Y0124885D02*
X0041706Y0124885D01*
X0041706Y0126484D02*
X0079598Y0126484D01*
X0079598Y0128082D02*
X0041706Y0128082D01*
X0041706Y0129681D02*
X0079598Y0129681D01*
X0079598Y0131279D02*
X0041706Y0131279D01*
X0041706Y0132878D02*
X0079598Y0132878D01*
X0079598Y0134476D02*
X0041706Y0134476D01*
X0041706Y0136075D02*
X0079598Y0136075D01*
X0095840Y0136075D02*
X0097314Y0136075D01*
X0097314Y0134476D02*
X0095840Y0134476D01*
X0095840Y0132878D02*
X0097314Y0132878D01*
X0097314Y0131279D02*
X0095840Y0131279D01*
X0095840Y0129681D02*
X0097314Y0129681D01*
X0097314Y0128082D02*
X0095840Y0128082D01*
X0095840Y0126484D02*
X0097314Y0126484D01*
X0097314Y0124885D02*
X0095840Y0124885D01*
X0095840Y0123287D02*
X0097314Y0123287D01*
X0097314Y0121688D02*
X0095840Y0121688D01*
X0095840Y0120090D02*
X0097314Y0120090D01*
X0097314Y0118491D02*
X0095840Y0118491D01*
X0095840Y0116893D02*
X0097314Y0116893D01*
X0097314Y0115294D02*
X0095840Y0115294D01*
X0095840Y0113696D02*
X0097314Y0113696D01*
X0097314Y0112097D02*
X0095840Y0112097D01*
X0095840Y0110499D02*
X0097314Y0110499D01*
X0097314Y0108900D02*
X0095840Y0108900D01*
X0095840Y0107302D02*
X0097314Y0107302D01*
X0097314Y0105703D02*
X0095840Y0105703D01*
X0095840Y0104105D02*
X0097314Y0104105D01*
X0097314Y0102506D02*
X0095840Y0102506D01*
X0095277Y0100908D02*
X0097877Y0100908D01*
X0099714Y0099309D02*
X0093440Y0099309D01*
X0091719Y0097711D02*
X0100385Y0097711D01*
X0100385Y0096112D02*
X0091719Y0096112D01*
X0091712Y0094514D02*
X0100385Y0094514D01*
X0100385Y0092915D02*
X0091284Y0092915D01*
X0090856Y0091317D02*
X0100385Y0091317D01*
X0100385Y0089718D02*
X0090427Y0089718D01*
X0089530Y0088120D02*
X0100385Y0088120D01*
X0100385Y0086521D02*
X0088607Y0086521D01*
X0087550Y0084923D02*
X0100385Y0084923D01*
X0100681Y0083324D02*
X0085952Y0083324D01*
X0084353Y0081726D02*
X0102341Y0081726D01*
X0114671Y0081726D02*
X0118487Y0081726D01*
X0116889Y0083324D02*
X0116332Y0083324D01*
X0120086Y0080127D02*
X0081639Y0080127D01*
X0078202Y0078529D02*
X0121684Y0078529D01*
X0123283Y0076930D02*
X0077753Y0076930D01*
X0076443Y0075332D02*
X0124882Y0075332D01*
X0126480Y0073733D02*
X0076443Y0073733D01*
X0076443Y0072134D02*
X0128079Y0072134D01*
X0129677Y0070536D02*
X0114239Y0070536D01*
X0114122Y0070603D02*
X0113665Y0070726D01*
X0109306Y0070726D01*
X0109306Y0061852D01*
X0107706Y0061852D01*
X0107706Y0060252D01*
X0101785Y0060252D01*
X0101785Y0052941D01*
X0101908Y0052483D01*
X0102145Y0052073D01*
X0102480Y0051738D01*
X0102890Y0051501D01*
X0103348Y0051378D01*
X0107706Y0051378D01*
X0107706Y0060252D01*
X0109306Y0060252D01*
X0109306Y0051378D01*
X0113665Y0051378D01*
X0114122Y0051501D01*
X0114533Y0051738D01*
X0114868Y0052073D01*
X0115105Y0052483D01*
X0115228Y0052941D01*
X0115228Y0060252D01*
X0109306Y0060252D01*
X0109306Y0061852D01*
X0115228Y0061852D01*
X0115228Y0069163D01*
X0115105Y0069621D01*
X0114868Y0070031D01*
X0114533Y0070366D01*
X0114122Y0070603D01*
X0115228Y0068937D02*
X0131276Y0068937D01*
X0132874Y0067339D02*
X0115228Y0067339D01*
X0115228Y0065740D02*
X0134473Y0065740D01*
X0136071Y0064142D02*
X0115228Y0064142D01*
X0115228Y0062543D02*
X0137670Y0062543D01*
X0139268Y0060945D02*
X0109306Y0060945D01*
X0109306Y0062543D02*
X0107706Y0062543D01*
X0107706Y0061852D02*
X0107706Y0070726D01*
X0103348Y0070726D01*
X0102890Y0070603D01*
X0102480Y0070366D01*
X0102145Y0070031D01*
X0101908Y0069621D01*
X0101785Y0069163D01*
X0101785Y0061852D01*
X0107706Y0061852D01*
X0107706Y0060945D02*
X0079659Y0060945D01*
X0079659Y0062543D02*
X0101785Y0062543D01*
X0101785Y0064142D02*
X0079659Y0064142D01*
X0079659Y0065740D02*
X0101785Y0065740D01*
X0101785Y0067339D02*
X0079659Y0067339D01*
X0079575Y0068937D02*
X0101785Y0068937D01*
X0102774Y0070536D02*
X0078548Y0070536D01*
X0068443Y0075332D02*
X0061163Y0075332D01*
X0072443Y0081800D02*
X0072443Y0065540D01*
X0073506Y0065540D01*
X0079659Y0059346D02*
X0101785Y0059346D01*
X0101785Y0057748D02*
X0079659Y0057748D01*
X0079659Y0056149D02*
X0101785Y0056149D01*
X0101785Y0054551D02*
X0079529Y0054551D01*
X0078436Y0052952D02*
X0101785Y0052952D01*
X0104284Y0049755D02*
X0086802Y0049755D01*
X0086802Y0048157D02*
X0103557Y0048157D01*
X0103557Y0046558D02*
X0082923Y0046558D01*
X0082923Y0044960D02*
X0081964Y0044960D01*
X0081964Y0043361D02*
X0082923Y0043361D01*
X0084692Y0041763D02*
X0079766Y0041763D01*
X0081964Y0048157D02*
X0082923Y0048157D01*
X0082923Y0049755D02*
X0081964Y0049755D01*
X0081964Y0051354D02*
X0082923Y0051354D01*
X0086144Y0051354D02*
X0146369Y0051354D01*
X0146369Y0052952D02*
X0115228Y0052952D01*
X0115228Y0054551D02*
X0145662Y0054551D01*
X0144064Y0056149D02*
X0115228Y0056149D01*
X0115228Y0057748D02*
X0142465Y0057748D01*
X0140867Y0059346D02*
X0115228Y0059346D01*
X0109306Y0059346D02*
X0107706Y0059346D01*
X0107706Y0057748D02*
X0109306Y0057748D01*
X0109306Y0056149D02*
X0107706Y0056149D01*
X0107706Y0054551D02*
X0109306Y0054551D01*
X0109306Y0052952D02*
X0107706Y0052952D01*
X0108027Y0049755D02*
X0108986Y0049755D01*
X0108986Y0048157D02*
X0108027Y0048157D01*
X0108027Y0046558D02*
X0108986Y0046558D01*
X0112728Y0049755D02*
X0146369Y0049755D01*
X0146369Y0048157D02*
X0113456Y0048157D01*
X0113456Y0046558D02*
X0129724Y0046558D01*
X0128125Y0044960D02*
X0113456Y0044960D01*
X0113456Y0043361D02*
X0127324Y0043361D01*
X0126806Y0041763D02*
X0114564Y0041763D01*
X0109569Y0036800D02*
X0109505Y0036802D01*
X0109441Y0036808D01*
X0109377Y0036817D01*
X0109315Y0036831D01*
X0109253Y0036848D01*
X0109192Y0036869D01*
X0109133Y0036894D01*
X0109075Y0036922D01*
X0109019Y0036953D01*
X0108965Y0036988D01*
X0108913Y0037026D01*
X0108864Y0037067D01*
X0108817Y0037111D01*
X0108773Y0037158D01*
X0108732Y0037207D01*
X0108694Y0037259D01*
X0108659Y0037313D01*
X0108628Y0037369D01*
X0108600Y0037427D01*
X0108575Y0037486D01*
X0108554Y0037547D01*
X0108537Y0037609D01*
X0108523Y0037671D01*
X0108514Y0037735D01*
X0108508Y0037799D01*
X0108506Y0037863D01*
X0108504Y0037799D01*
X0108498Y0037735D01*
X0108489Y0037671D01*
X0108475Y0037609D01*
X0108458Y0037547D01*
X0108437Y0037486D01*
X0108412Y0037427D01*
X0108384Y0037369D01*
X0108353Y0037313D01*
X0108318Y0037259D01*
X0108280Y0037207D01*
X0108239Y0037158D01*
X0108195Y0037111D01*
X0108148Y0037067D01*
X0108099Y0037026D01*
X0108047Y0036988D01*
X0107993Y0036953D01*
X0107937Y0036922D01*
X0107879Y0036894D01*
X0107820Y0036869D01*
X0107759Y0036848D01*
X0107697Y0036831D01*
X0107635Y0036817D01*
X0107571Y0036808D01*
X0107507Y0036802D01*
X0107443Y0036800D01*
X0097246Y0036800D01*
X0102575Y0032172D02*
X0104557Y0032172D01*
X0109569Y0036800D02*
X0133906Y0036800D01*
X0141006Y0036967D02*
X0146369Y0036967D01*
X0146369Y0038566D02*
X0141006Y0038566D01*
X0141006Y0040164D02*
X0146369Y0040164D01*
X0146369Y0041763D02*
X0141006Y0041763D01*
X0140489Y0043361D02*
X0146369Y0043361D01*
X0146369Y0044960D02*
X0139687Y0044960D01*
X0138089Y0046558D02*
X0146369Y0046558D01*
X0160643Y0046558D02*
X0166369Y0046558D01*
X0166369Y0044960D02*
X0160643Y0044960D01*
X0160643Y0043361D02*
X0166369Y0043361D01*
X0166206Y0041763D02*
X0160806Y0041763D01*
X0160806Y0040164D02*
X0166206Y0040164D01*
X0166206Y0038566D02*
X0160806Y0038566D01*
X0160806Y0036967D02*
X0166206Y0036967D01*
X0166206Y0035369D02*
X0160806Y0035369D01*
X0160806Y0033770D02*
X0166206Y0033770D01*
X0166206Y0032172D02*
X0160806Y0032172D01*
X0160427Y0030573D02*
X0166585Y0030573D01*
X0167247Y0028975D02*
X0159765Y0028975D01*
X0158223Y0027376D02*
X0168789Y0027376D01*
X0177823Y0027376D02*
X0191661Y0027376D01*
X0191772Y0027340D02*
X0192606Y0027208D01*
X0192606Y0036300D01*
X0187406Y0036300D01*
X0187406Y0032451D01*
X0187547Y0031565D01*
X0187824Y0030712D01*
X0188231Y0029913D01*
X0188759Y0029187D01*
X0189393Y0028552D01*
X0190119Y0028025D01*
X0190918Y0027618D01*
X0191772Y0027340D01*
X0192606Y0027376D02*
X0193606Y0027376D01*
X0193606Y0027208D02*
X0194441Y0027340D01*
X0195294Y0027618D01*
X0196094Y0028025D01*
X0196820Y0028552D01*
X0197454Y0029187D01*
X0197981Y0029913D01*
X0198389Y0030712D01*
X0198666Y0031565D01*
X0198806Y0032451D01*
X0198806Y0036300D01*
X0193606Y0036300D01*
X0193606Y0027208D01*
X0194551Y0027376D02*
X0300228Y0027376D01*
X0300228Y0025778D02*
X0041706Y0025778D01*
X0041706Y0027376D02*
X0129389Y0027376D01*
X0127847Y0028975D02*
X0041706Y0028975D01*
X0041706Y0030573D02*
X0127185Y0030573D01*
X0126806Y0032172D02*
X0112456Y0032172D01*
X0102448Y0041763D02*
X0102321Y0041763D01*
X0103557Y0043361D02*
X0086788Y0043361D01*
X0086802Y0044960D02*
X0103557Y0044960D01*
X0089766Y0036800D02*
X0074569Y0036800D01*
X0074569Y0046800D01*
X0073506Y0046800D01*
X0073506Y0058060D01*
X0067354Y0056149D02*
X0041706Y0056149D01*
X0041706Y0054551D02*
X0067483Y0054551D01*
X0068576Y0052952D02*
X0041706Y0052952D01*
X0041706Y0051354D02*
X0069128Y0051354D01*
X0068810Y0049755D02*
X0041706Y0049755D01*
X0041706Y0048157D02*
X0068810Y0048157D01*
X0068810Y0046558D02*
X0041706Y0046558D01*
X0041706Y0044960D02*
X0068810Y0044960D01*
X0068810Y0043361D02*
X0041706Y0043361D01*
X0041706Y0041763D02*
X0069372Y0041763D01*
X0070569Y0040164D02*
X0041706Y0040164D01*
X0041706Y0038566D02*
X0070569Y0038566D01*
X0070569Y0036967D02*
X0041706Y0036967D01*
X0041706Y0035369D02*
X0070833Y0035369D01*
X0071942Y0033770D02*
X0041706Y0033770D01*
X0041706Y0032172D02*
X0084437Y0032172D01*
X0041706Y0024179D02*
X0300228Y0024179D01*
X0300228Y0022581D02*
X0041706Y0022581D01*
X0041706Y0020982D02*
X0300228Y0020982D01*
X0300228Y0019384D02*
X0041706Y0019384D01*
X0041706Y0017785D02*
X0300228Y0017785D01*
X0300228Y0016187D02*
X0041706Y0016187D01*
X0041706Y0014588D02*
X0300228Y0014588D01*
X0300228Y0012990D02*
X0041706Y0012990D01*
X0041706Y0011391D02*
X0300228Y0011391D01*
X0300228Y0009793D02*
X0041706Y0009793D01*
X0041706Y0008194D02*
X0300228Y0008194D01*
X0300228Y0006596D02*
X0041706Y0006596D01*
X0047806Y0059346D02*
X0049406Y0059346D01*
X0049406Y0060945D02*
X0047806Y0060945D01*
X0047806Y0062543D02*
X0049406Y0062543D01*
X0041706Y0089718D02*
X0080896Y0089718D01*
X0082027Y0091317D02*
X0041706Y0091317D01*
X0047806Y0092915D02*
X0049406Y0092915D01*
X0049406Y0094514D02*
X0047806Y0094514D01*
X0047806Y0096112D02*
X0049406Y0096112D01*
X0049406Y0097711D02*
X0047806Y0097711D01*
X0049406Y0099309D02*
X0081998Y0099309D01*
X0087719Y0097076D02*
X0087719Y0121800D01*
X0105435Y0121800D02*
X0105435Y0118729D01*
X0108506Y0118729D01*
X0115643Y0113696D02*
X0203613Y0113696D01*
X0203613Y0112097D02*
X0115643Y0112097D01*
X0115643Y0110499D02*
X0203613Y0110499D01*
X0203613Y0108900D02*
X0115643Y0108900D01*
X0115643Y0107302D02*
X0203613Y0107302D01*
X0203613Y0105703D02*
X0115643Y0105703D01*
X0115643Y0104105D02*
X0203613Y0104105D01*
X0203613Y0102506D02*
X0115869Y0102506D01*
X0116628Y0100908D02*
X0204176Y0100908D01*
X0201927Y0099309D02*
X0120085Y0099309D01*
X0122689Y0097711D02*
X0199324Y0097711D01*
X0197725Y0096112D02*
X0124287Y0096112D01*
X0125886Y0094514D02*
X0196127Y0094514D01*
X0194528Y0092915D02*
X0127484Y0092915D01*
X0129083Y0091317D02*
X0192930Y0091317D01*
X0191331Y0089718D02*
X0130681Y0089718D01*
X0132280Y0088120D02*
X0189733Y0088120D01*
X0188134Y0086521D02*
X0133878Y0086521D01*
X0135477Y0084923D02*
X0186536Y0084923D01*
X0184937Y0083324D02*
X0137075Y0083324D01*
X0138674Y0081726D02*
X0183339Y0081726D01*
X0181740Y0080127D02*
X0140272Y0080127D01*
X0141871Y0078529D02*
X0180142Y0078529D01*
X0178543Y0076930D02*
X0143470Y0076930D01*
X0145068Y0075332D02*
X0176945Y0075332D01*
X0175346Y0073733D02*
X0146667Y0073733D01*
X0148265Y0072134D02*
X0173748Y0072134D01*
X0172149Y0070536D02*
X0149864Y0070536D01*
X0151462Y0068937D02*
X0170551Y0068937D01*
X0168952Y0067339D02*
X0153061Y0067339D01*
X0154659Y0065740D02*
X0167413Y0065740D01*
X0166751Y0064142D02*
X0156258Y0064142D01*
X0157856Y0062543D02*
X0166369Y0062543D01*
X0166369Y0060945D02*
X0159455Y0060945D01*
X0160177Y0059346D02*
X0166369Y0059346D01*
X0166369Y0057748D02*
X0160643Y0057748D01*
X0160643Y0056149D02*
X0166369Y0056149D01*
X0166369Y0054551D02*
X0160643Y0054551D01*
X0160643Y0052952D02*
X0166369Y0052952D01*
X0166369Y0051354D02*
X0160643Y0051354D01*
X0160643Y0049755D02*
X0166369Y0049755D01*
X0166369Y0048157D02*
X0160643Y0048157D01*
X0153506Y0037000D02*
X0153706Y0036800D01*
X0146457Y0035369D02*
X0141006Y0035369D01*
X0141006Y0033770D02*
X0146606Y0033770D01*
X0146606Y0032172D02*
X0141006Y0032172D01*
X0140627Y0030573D02*
X0146985Y0030573D01*
X0147647Y0028975D02*
X0139965Y0028975D01*
X0138423Y0027376D02*
X0149189Y0027376D01*
X0173306Y0036800D02*
X0173506Y0037000D01*
X0180643Y0036967D02*
X0192606Y0036967D01*
X0192606Y0037300D02*
X0192606Y0036300D01*
X0193606Y0036300D01*
X0193606Y0037300D01*
X0192606Y0037300D01*
X0187406Y0037300D01*
X0187406Y0041149D01*
X0187547Y0042035D01*
X0187824Y0042888D01*
X0188231Y0043687D01*
X0188759Y0044413D01*
X0189393Y0045048D01*
X0190119Y0045575D01*
X0190918Y0045982D01*
X0191772Y0046260D01*
X0192606Y0046392D01*
X0192606Y0037300D01*
X0193606Y0037300D02*
X0193606Y0046392D01*
X0194441Y0046260D01*
X0195294Y0045982D01*
X0196094Y0045575D01*
X0196820Y0045048D01*
X0197454Y0044413D01*
X0197981Y0043687D01*
X0198389Y0042888D01*
X0198666Y0042035D01*
X0198806Y0041149D01*
X0198806Y0037300D01*
X0193606Y0037300D01*
X0193606Y0036967D02*
X0300228Y0036967D01*
X0300228Y0035369D02*
X0198806Y0035369D01*
X0198806Y0033770D02*
X0300228Y0033770D01*
X0300228Y0032172D02*
X0198762Y0032172D01*
X0198318Y0030573D02*
X0300228Y0030573D01*
X0300228Y0028975D02*
X0197242Y0028975D01*
X0193606Y0028975D02*
X0192606Y0028975D01*
X0192606Y0030573D02*
X0193606Y0030573D01*
X0193606Y0032172D02*
X0192606Y0032172D01*
X0192606Y0033770D02*
X0193606Y0033770D01*
X0193606Y0035369D02*
X0192606Y0035369D01*
X0192606Y0038566D02*
X0193606Y0038566D01*
X0193606Y0040164D02*
X0192606Y0040164D01*
X0192606Y0041763D02*
X0193606Y0041763D01*
X0193606Y0043361D02*
X0192606Y0043361D01*
X0192606Y0044960D02*
X0193606Y0044960D01*
X0196907Y0044960D02*
X0300228Y0044960D01*
X0300228Y0046558D02*
X0180643Y0046558D01*
X0180643Y0044960D02*
X0189305Y0044960D01*
X0188065Y0043361D02*
X0180643Y0043361D01*
X0180643Y0041763D02*
X0187504Y0041763D01*
X0187406Y0040164D02*
X0180643Y0040164D01*
X0180643Y0038566D02*
X0187406Y0038566D01*
X0187406Y0035369D02*
X0180556Y0035369D01*
X0180406Y0033770D02*
X0187406Y0033770D01*
X0187451Y0032172D02*
X0180406Y0032172D01*
X0180027Y0030573D02*
X0187895Y0030573D01*
X0188971Y0028975D02*
X0179365Y0028975D01*
X0198806Y0038566D02*
X0300228Y0038566D01*
X0300228Y0040164D02*
X0198806Y0040164D01*
X0198709Y0041763D02*
X0300228Y0041763D01*
X0300228Y0043361D02*
X0198148Y0043361D01*
X0207145Y0052073D02*
X0207480Y0051738D01*
X0207890Y0051501D01*
X0208348Y0051378D01*
X0212706Y0051378D01*
X0212706Y0060252D01*
X0206785Y0060252D01*
X0206785Y0052941D01*
X0206908Y0052483D01*
X0207145Y0052073D01*
X0206785Y0052952D02*
X0180643Y0052952D01*
X0180643Y0051354D02*
X0300228Y0051354D01*
X0300228Y0052952D02*
X0220228Y0052952D01*
X0220228Y0052941D02*
X0220228Y0060252D01*
X0214306Y0060252D01*
X0214306Y0051378D01*
X0218665Y0051378D01*
X0219122Y0051501D01*
X0219533Y0051738D01*
X0219868Y0052073D01*
X0220105Y0052483D01*
X0220228Y0052941D01*
X0220228Y0054551D02*
X0300228Y0054551D01*
X0300228Y0056149D02*
X0220228Y0056149D01*
X0220228Y0057748D02*
X0300228Y0057748D01*
X0294206Y0059346D02*
X0292606Y0059346D01*
X0292606Y0060945D02*
X0294206Y0060945D01*
X0294206Y0062543D02*
X0292606Y0062543D01*
X0292606Y0064142D02*
X0220228Y0064142D01*
X0220228Y0065740D02*
X0281606Y0065740D01*
X0281606Y0067339D02*
X0220228Y0067339D01*
X0220228Y0068937D02*
X0281606Y0068937D01*
X0282640Y0070536D02*
X0219239Y0070536D01*
X0219122Y0070603D02*
X0218665Y0070726D01*
X0214306Y0070726D01*
X0214306Y0061852D01*
X0212706Y0061852D01*
X0212706Y0060252D01*
X0214306Y0060252D01*
X0214306Y0061852D01*
X0220228Y0061852D01*
X0220228Y0069163D01*
X0220105Y0069621D01*
X0219868Y0070031D01*
X0219533Y0070366D01*
X0219122Y0070603D01*
X0214306Y0070536D02*
X0212706Y0070536D01*
X0212706Y0070726D02*
X0208348Y0070726D01*
X0207890Y0070603D01*
X0207480Y0070366D01*
X0207145Y0070031D01*
X0206908Y0069621D01*
X0206785Y0069163D01*
X0206785Y0061852D01*
X0212706Y0061852D01*
X0212706Y0070726D01*
X0212706Y0068937D02*
X0214306Y0068937D01*
X0214306Y0067339D02*
X0212706Y0067339D01*
X0212706Y0065740D02*
X0214306Y0065740D01*
X0214306Y0064142D02*
X0212706Y0064142D01*
X0212706Y0062543D02*
X0214306Y0062543D01*
X0214306Y0060945D02*
X0281606Y0060945D01*
X0281606Y0062543D02*
X0220228Y0062543D01*
X0220228Y0059346D02*
X0281691Y0059346D01*
X0292606Y0065740D02*
X0294206Y0065740D01*
X0294206Y0067339D02*
X0292606Y0067339D01*
X0292606Y0068937D02*
X0294206Y0068937D01*
X0294206Y0070536D02*
X0292606Y0070536D01*
X0300228Y0072134D02*
X0193934Y0072134D01*
X0192336Y0070536D02*
X0207774Y0070536D01*
X0206785Y0068937D02*
X0190737Y0068937D01*
X0189138Y0067339D02*
X0206785Y0067339D01*
X0206785Y0065740D02*
X0187540Y0065740D01*
X0185941Y0064142D02*
X0206785Y0064142D01*
X0206785Y0062543D02*
X0184343Y0062543D01*
X0182744Y0060945D02*
X0212706Y0060945D01*
X0212706Y0059346D02*
X0214306Y0059346D01*
X0214306Y0057748D02*
X0212706Y0057748D01*
X0212706Y0056149D02*
X0214306Y0056149D01*
X0214306Y0054551D02*
X0212706Y0054551D01*
X0212706Y0052952D02*
X0214306Y0052952D01*
X0206785Y0054551D02*
X0180643Y0054551D01*
X0180643Y0056149D02*
X0206785Y0056149D01*
X0206785Y0057748D02*
X0180643Y0057748D01*
X0181146Y0059346D02*
X0206785Y0059346D01*
X0195533Y0073733D02*
X0300228Y0073733D01*
X0300228Y0089500D02*
X0282770Y0089500D01*
X0282287Y0089300D01*
X0278506Y0089300D01*
X0277107Y0089379D01*
X0274378Y0090001D01*
X0271856Y0091216D01*
X0269667Y0092961D01*
X0267922Y0095150D01*
X0266708Y0097672D01*
X0266094Y0100360D01*
X0266463Y0100729D01*
X0267100Y0102267D01*
X0267100Y0137301D01*
X0300228Y0137301D01*
X0300228Y0105500D01*
X0294206Y0105500D01*
X0294206Y0100000D01*
X0292606Y0100000D01*
X0292606Y0098400D01*
X0281606Y0098400D01*
X0281606Y0094463D01*
X0281729Y0094005D01*
X0281966Y0093595D01*
X0282301Y0093260D01*
X0282712Y0093023D01*
X0283169Y0092900D01*
X0292606Y0092900D01*
X0292606Y0098400D01*
X0294206Y0098400D01*
X0294206Y0092900D01*
X0300228Y0092900D01*
X0300228Y0089500D01*
X0300228Y0089718D02*
X0275619Y0089718D01*
X0271730Y0091317D02*
X0300228Y0091317D01*
X0294206Y0092915D02*
X0292606Y0092915D01*
X0292606Y0094514D02*
X0294206Y0094514D01*
X0294206Y0096112D02*
X0292606Y0096112D01*
X0292606Y0097711D02*
X0294206Y0097711D01*
X0292606Y0099309D02*
X0266334Y0099309D01*
X0266537Y0100908D02*
X0281606Y0100908D01*
X0281606Y0100000D02*
X0292606Y0100000D01*
X0292606Y0105500D01*
X0283169Y0105500D01*
X0282712Y0105377D01*
X0282301Y0105140D01*
X0281966Y0104805D01*
X0281729Y0104395D01*
X0281606Y0103937D01*
X0281606Y0100000D01*
X0281606Y0097711D02*
X0266699Y0097711D01*
X0267459Y0096112D02*
X0281606Y0096112D01*
X0281606Y0094514D02*
X0268429Y0094514D01*
X0269725Y0092915D02*
X0283113Y0092915D01*
X0292606Y0100908D02*
X0294206Y0100908D01*
X0294206Y0102506D02*
X0292606Y0102506D01*
X0292606Y0104105D02*
X0294206Y0104105D01*
X0300228Y0105703D02*
X0267100Y0105703D01*
X0267100Y0104105D02*
X0281651Y0104105D01*
X0281606Y0102506D02*
X0267100Y0102506D01*
X0267100Y0107302D02*
X0300228Y0107302D01*
X0300228Y0108900D02*
X0267100Y0108900D01*
X0267100Y0110499D02*
X0300228Y0110499D01*
X0300228Y0112097D02*
X0267100Y0112097D01*
X0267100Y0113696D02*
X0300228Y0113696D01*
X0300228Y0115294D02*
X0267100Y0115294D01*
X0267100Y0116893D02*
X0300228Y0116893D01*
X0300228Y0118491D02*
X0267100Y0118491D01*
X0267100Y0120090D02*
X0300228Y0120090D01*
X0300228Y0121688D02*
X0267100Y0121688D01*
X0267100Y0123287D02*
X0300228Y0123287D01*
X0300228Y0124885D02*
X0267100Y0124885D01*
X0267100Y0126484D02*
X0300228Y0126484D01*
X0300228Y0128082D02*
X0267100Y0128082D01*
X0267100Y0129681D02*
X0300228Y0129681D01*
X0300228Y0131279D02*
X0267100Y0131279D01*
X0267100Y0132878D02*
X0300228Y0132878D01*
X0300228Y0134476D02*
X0267100Y0134476D01*
X0267100Y0136075D02*
X0300228Y0136075D01*
X0250857Y0136075D02*
X0219856Y0136075D01*
X0219856Y0134476D02*
X0250857Y0134476D01*
X0250857Y0132878D02*
X0219856Y0132878D01*
X0219856Y0131279D02*
X0250857Y0131279D01*
X0250857Y0129681D02*
X0219856Y0129681D01*
X0219856Y0128082D02*
X0250857Y0128082D01*
X0250857Y0126484D02*
X0219856Y0126484D01*
X0219856Y0124885D02*
X0250857Y0124885D01*
X0250857Y0123287D02*
X0219856Y0123287D01*
X0219856Y0121688D02*
X0250857Y0121688D01*
X0250857Y0120090D02*
X0219856Y0120090D01*
X0219856Y0118491D02*
X0250857Y0118491D01*
X0250857Y0116893D02*
X0219856Y0116893D01*
X0219856Y0115294D02*
X0250857Y0115294D01*
X0250857Y0113696D02*
X0219856Y0113696D01*
X0219856Y0112097D02*
X0250857Y0112097D01*
X0250857Y0110499D02*
X0219856Y0110499D01*
X0219856Y0108900D02*
X0250857Y0108900D01*
X0250857Y0107302D02*
X0219856Y0107302D01*
X0219856Y0105703D02*
X0250857Y0105703D01*
X0250857Y0104105D02*
X0219856Y0104105D01*
X0220869Y0102506D02*
X0250857Y0102506D01*
X0251006Y0100908D02*
X0221628Y0100908D01*
X0221628Y0099309D02*
X0251006Y0099309D01*
X0251232Y0097711D02*
X0221628Y0097711D01*
X0221628Y0096112D02*
X0251597Y0096112D01*
X0251962Y0094514D02*
X0221628Y0094514D01*
X0221628Y0092915D02*
X0252327Y0092915D01*
X0253032Y0091317D02*
X0221628Y0091317D01*
X0221628Y0089718D02*
X0253802Y0089718D01*
X0254572Y0088120D02*
X0221628Y0088120D01*
X0221628Y0086521D02*
X0255517Y0086521D01*
X0256792Y0084923D02*
X0221628Y0084923D01*
X0221332Y0083324D02*
X0258067Y0083324D01*
X0258938Y0082232D02*
X0258938Y0082232D01*
X0259572Y0081726D02*
X0219671Y0081726D01*
X0207341Y0081726D02*
X0203525Y0081726D01*
X0205124Y0083324D02*
X0205681Y0083324D01*
X0201927Y0080127D02*
X0261577Y0080127D01*
X0263581Y0078529D02*
X0200328Y0078529D01*
X0198730Y0076930D02*
X0266768Y0076930D01*
X0270888Y0075332D02*
X0197131Y0075332D01*
X0213506Y0092548D02*
X0211735Y0094320D01*
X0194502Y0115294D02*
X0122510Y0115294D01*
X0123615Y0116893D02*
X0124941Y0116893D01*
X0124659Y0118491D02*
X0123955Y0118491D01*
X0124617Y0120090D02*
X0124659Y0120090D01*
X0128735Y0120090D02*
X0130088Y0120090D01*
X0130088Y0121688D02*
X0186924Y0121688D01*
X0186924Y0120090D02*
X0188277Y0120090D01*
X0188277Y0118491D02*
X0186924Y0118491D01*
X0186924Y0116893D02*
X0188277Y0116893D01*
X0192072Y0116893D02*
X0193397Y0116893D01*
X0193057Y0118491D02*
X0192354Y0118491D01*
X0192354Y0120090D02*
X0192395Y0120090D01*
X0192354Y0124885D02*
X0192965Y0124885D01*
X0193305Y0126484D02*
X0192201Y0126484D01*
X0194279Y0128082D02*
X0122734Y0128082D01*
X0123708Y0126484D02*
X0124812Y0126484D01*
X0124659Y0124885D02*
X0124048Y0124885D01*
X0128735Y0124885D02*
X0130088Y0124885D01*
X0130088Y0123287D02*
X0128735Y0123287D01*
X0128735Y0126484D02*
X0130088Y0126484D01*
X0134012Y0126484D02*
X0183001Y0126484D01*
X0182848Y0124885D02*
X0134165Y0124885D01*
X0134165Y0123287D02*
X0182848Y0123287D01*
X0186924Y0123287D02*
X0188277Y0123287D01*
X0188277Y0124885D02*
X0186924Y0124885D01*
X0186924Y0126484D02*
X0188277Y0126484D01*
X0182848Y0120090D02*
X0134165Y0120090D01*
X0134165Y0118491D02*
X0182848Y0118491D01*
X0183130Y0116893D02*
X0133883Y0116893D01*
X0130088Y0116893D02*
X0128735Y0116893D01*
X0128735Y0118491D02*
X0130088Y0118491D01*
X0113557Y0129681D02*
X0203613Y0129681D01*
X0203613Y0131279D02*
X0113557Y0131279D01*
X0113557Y0132878D02*
X0203613Y0132878D01*
X0203613Y0134476D02*
X0113557Y0134476D01*
X0113557Y0136075D02*
X0203613Y0136075D01*
X0109306Y0070536D02*
X0107706Y0070536D01*
X0107706Y0068937D02*
X0109306Y0068937D01*
X0109306Y0067339D02*
X0107706Y0067339D01*
X0107706Y0065740D02*
X0109306Y0065740D01*
X0109306Y0064142D02*
X0107706Y0064142D01*
X0079289Y0088120D02*
X0075711Y0088120D01*
X0069175Y0088120D02*
X0067837Y0088120D01*
X0072443Y0081800D02*
X0072812Y0081804D01*
X0073181Y0081818D01*
X0073550Y0081840D01*
X0073917Y0081871D01*
X0074284Y0081911D01*
X0074650Y0081960D01*
X0075015Y0082018D01*
X0075378Y0082085D01*
X0075739Y0082160D01*
X0076099Y0082244D01*
X0076456Y0082337D01*
X0076811Y0082438D01*
X0077164Y0082548D01*
X0077513Y0082666D01*
X0077860Y0082793D01*
X0078204Y0082928D01*
X0078544Y0083071D01*
X0078880Y0083223D01*
X0079213Y0083382D01*
X0079542Y0083550D01*
X0079867Y0083725D01*
X0080187Y0083909D01*
X0080503Y0084100D01*
X0080814Y0084298D01*
X0081121Y0084504D01*
X0081422Y0084717D01*
X0081718Y0084938D01*
X0082009Y0085166D01*
X0082294Y0085400D01*
X0082573Y0085642D01*
X0082846Y0085890D01*
X0083113Y0086145D01*
X0083374Y0086406D01*
X0083629Y0086673D01*
X0083877Y0086946D01*
X0084119Y0087225D01*
X0084353Y0087510D01*
X0084581Y0087801D01*
X0084802Y0088097D01*
X0085015Y0088398D01*
X0085221Y0088705D01*
X0085419Y0089016D01*
X0085610Y0089332D01*
X0085794Y0089652D01*
X0085969Y0089977D01*
X0086137Y0090306D01*
X0086296Y0090639D01*
X0086448Y0090975D01*
X0086591Y0091315D01*
X0086726Y0091659D01*
X0086853Y0092006D01*
X0086971Y0092355D01*
X0087081Y0092708D01*
X0087182Y0093063D01*
X0087275Y0093420D01*
X0087359Y0093780D01*
X0087434Y0094141D01*
X0087501Y0094504D01*
X0087559Y0094869D01*
X0087608Y0095235D01*
X0087648Y0095602D01*
X0087679Y0095969D01*
X0087701Y0096338D01*
X0087715Y0096707D01*
X0087719Y0097076D01*
X0049406Y0100908D02*
X0047806Y0100908D01*
X0047806Y0102506D02*
X0049406Y0102506D01*
X0049406Y0104105D02*
X0047806Y0104105D01*
X0180643Y0049755D02*
X0300228Y0049755D01*
X0300228Y0048157D02*
X0180643Y0048157D01*
D20*
X0258506Y0101800D02*
X0258506Y0121328D01*
X0258507Y0121328D02*
X0258509Y0121369D01*
X0258514Y0121410D01*
X0258523Y0121450D01*
X0258535Y0121489D01*
X0258551Y0121527D01*
X0258570Y0121564D01*
X0258592Y0121599D01*
X0258617Y0121631D01*
X0258645Y0121662D01*
X0258676Y0121690D01*
X0258708Y0121715D01*
X0258743Y0121737D01*
X0258780Y0121756D01*
X0258818Y0121772D01*
X0258857Y0121784D01*
X0258897Y0121793D01*
X0258938Y0121798D01*
X0258979Y0121800D01*
X0258506Y0101800D02*
X0258512Y0101317D01*
X0258529Y0100834D01*
X0258559Y0100351D01*
X0258599Y0099870D01*
X0258652Y0099389D01*
X0258716Y0098910D01*
X0258791Y0098433D01*
X0258879Y0097957D01*
X0258977Y0097484D01*
X0259087Y0097014D01*
X0259208Y0096546D01*
X0259341Y0096081D01*
X0259485Y0095620D01*
X0259640Y0095162D01*
X0259806Y0094708D01*
X0259983Y0094258D01*
X0260170Y0093813D01*
X0260369Y0093372D01*
X0260577Y0092936D01*
X0260797Y0092506D01*
X0261027Y0092080D01*
X0261267Y0091661D01*
X0261517Y0091247D01*
X0261777Y0090840D01*
X0262046Y0090439D01*
X0262326Y0090044D01*
X0262614Y0089657D01*
X0262913Y0089276D01*
X0263220Y0088903D01*
X0263536Y0088538D01*
X0263861Y0088180D01*
X0264194Y0087830D01*
X0264536Y0087488D01*
X0264886Y0087155D01*
X0265244Y0086830D01*
X0265609Y0086514D01*
X0265982Y0086207D01*
X0266363Y0085908D01*
X0266750Y0085620D01*
X0267145Y0085340D01*
X0267546Y0085071D01*
X0267953Y0084811D01*
X0268367Y0084561D01*
X0268786Y0084321D01*
X0269212Y0084091D01*
X0269642Y0083871D01*
X0270078Y0083663D01*
X0270519Y0083464D01*
X0270964Y0083277D01*
X0271414Y0083100D01*
X0271868Y0082934D01*
X0272326Y0082779D01*
X0272787Y0082635D01*
X0273252Y0082502D01*
X0273720Y0082381D01*
X0274190Y0082271D01*
X0274663Y0082173D01*
X0275139Y0082085D01*
X0275616Y0082010D01*
X0276095Y0081946D01*
X0276576Y0081893D01*
X0277057Y0081853D01*
X0277540Y0081823D01*
X0278023Y0081806D01*
X0278506Y0081800D01*
X0293406Y0081800D01*
D21*
X0294506Y0072800D03*
X0289506Y0072800D03*
X0284506Y0072800D03*
X0279506Y0072800D03*
X0273506Y0072800D03*
X0267506Y0073800D03*
X0261506Y0078300D03*
X0256506Y0082300D03*
X0252506Y0087300D03*
X0242506Y0082800D03*
X0224506Y0083800D03*
X0224506Y0088800D03*
X0224506Y0093800D03*
X0224506Y0098800D03*
X0224506Y0103800D03*
X0224506Y0108800D03*
X0224506Y0113800D03*
X0224506Y0118800D03*
X0224506Y0123800D03*
X0224506Y0128800D03*
X0224506Y0133800D03*
X0244506Y0133800D03*
X0248506Y0129800D03*
X0248506Y0124800D03*
X0248506Y0119800D03*
X0248506Y0114800D03*
X0248506Y0109800D03*
X0248506Y0104800D03*
X0249506Y0099800D03*
X0250006Y0094800D03*
X0237506Y0102800D03*
X0237506Y0117800D03*
X0268506Y0118800D03*
X0268506Y0123800D03*
X0268506Y0128800D03*
X0268506Y0133800D03*
X0296006Y0133800D03*
X0268506Y0113800D03*
X0268506Y0108800D03*
X0269506Y0103800D03*
X0271006Y0098300D03*
X0273506Y0093800D03*
X0279506Y0090800D03*
X0284506Y0090800D03*
X0289506Y0090800D03*
X0294506Y0090800D03*
X0278506Y0098800D03*
X0278506Y0103800D03*
X0291006Y0108800D03*
X0296006Y0108800D03*
X0252506Y0067800D03*
X0277006Y0065300D03*
X0279506Y0057800D03*
X0277506Y0052800D03*
X0287006Y0055300D03*
X0292006Y0055300D03*
X0297006Y0055300D03*
X0282506Y0035658D03*
X0275006Y0032824D03*
X0270006Y0025300D03*
X0270006Y0017800D03*
X0275006Y0010300D03*
X0282506Y0007800D03*
X0292506Y0010300D03*
X0297506Y0017800D03*
X0297506Y0025300D03*
X0292506Y0032800D03*
X0257506Y0027800D03*
X0232506Y0017800D03*
X0217506Y0032800D03*
X0202506Y0033800D03*
X0202506Y0028800D03*
X0197506Y0023800D03*
X0193006Y0023800D03*
X0188006Y0023800D03*
X0183006Y0028800D03*
X0183006Y0033800D03*
X0183006Y0038800D03*
X0183006Y0043800D03*
X0188006Y0048800D03*
X0193006Y0048800D03*
X0198006Y0048800D03*
X0202506Y0043800D03*
X0202506Y0038800D03*
X0205506Y0048800D03*
X0213506Y0048800D03*
X0220506Y0048800D03*
X0225506Y0054800D03*
X0225506Y0061800D03*
X0225506Y0067800D03*
X0222506Y0072800D03*
X0216506Y0072800D03*
X0210506Y0072800D03*
X0204506Y0072800D03*
X0201506Y0067800D03*
X0201506Y0061800D03*
X0192506Y0061800D03*
X0201506Y0055800D03*
X0168506Y0076800D03*
X0162506Y0067800D03*
X0151506Y0076800D03*
X0140506Y0086800D03*
X0130506Y0094800D03*
X0119506Y0103800D03*
X0119506Y0111800D03*
X0126506Y0112800D03*
X0134506Y0112800D03*
X0137506Y0118800D03*
X0137506Y0125800D03*
X0135506Y0131800D03*
X0126506Y0131800D03*
X0117506Y0132800D03*
X0077506Y0129800D03*
X0075506Y0133800D03*
X0077506Y0124800D03*
X0077506Y0119800D03*
X0077506Y0114800D03*
X0077506Y0109800D03*
X0077506Y0104800D03*
X0079506Y0098800D03*
X0077506Y0093800D03*
X0074506Y0090800D03*
X0069506Y0090800D03*
X0064506Y0090800D03*
X0059506Y0091300D03*
X0054506Y0091300D03*
X0049506Y0091300D03*
X0045006Y0091300D03*
X0065506Y0106300D03*
X0070506Y0098800D03*
X0095006Y0091300D03*
X0097006Y0097800D03*
X0092006Y0084800D03*
X0087006Y0079300D03*
X0079506Y0075800D03*
X0080506Y0070800D03*
X0081506Y0065800D03*
X0081506Y0060800D03*
X0081506Y0055800D03*
X0091006Y0051300D03*
X0098506Y0053800D03*
X0098506Y0059800D03*
X0098506Y0065800D03*
X0098506Y0071800D03*
X0104506Y0073800D03*
X0110506Y0073800D03*
X0117506Y0071800D03*
X0117506Y0065800D03*
X0117506Y0059800D03*
X0117506Y0053800D03*
X0115506Y0047800D03*
X0100506Y0047800D03*
X0096506Y0028800D03*
X0104506Y0028800D03*
X0112506Y0028800D03*
X0120506Y0028800D03*
X0127506Y0023800D03*
X0138506Y0023800D03*
X0149506Y0023800D03*
X0160506Y0023800D03*
X0173506Y0023800D03*
X0163506Y0046800D03*
X0162506Y0055800D03*
X0142506Y0048800D03*
X0133506Y0058800D03*
X0180506Y0086800D03*
X0190506Y0094800D03*
X0174506Y0102800D03*
X0183506Y0112800D03*
X0179506Y0117800D03*
X0191506Y0112800D03*
X0179506Y0125800D03*
X0183506Y0131800D03*
X0190506Y0131800D03*
X0199506Y0132800D03*
X0158506Y0130800D03*
X0160506Y0110800D03*
X0144506Y0101800D03*
X0160506Y0092800D03*
X0224506Y0078800D03*
X0242506Y0047800D03*
X0114506Y0016300D03*
X0092006Y0016300D03*
X0072506Y0022800D03*
X0070006Y0030300D03*
X0064006Y0035300D03*
X0066506Y0041300D03*
X0059006Y0041300D03*
X0055006Y0035300D03*
X0047506Y0030300D03*
X0044530Y0022800D03*
X0047506Y0012800D03*
X0055006Y0007800D03*
X0062506Y0007800D03*
X0070006Y0012800D03*
X0080006Y0030300D03*
X0088506Y0028800D03*
X0066506Y0048800D03*
X0064006Y0053800D03*
X0059006Y0056300D03*
X0064006Y0058800D03*
X0063006Y0063800D03*
X0064506Y0068800D03*
X0059506Y0072300D03*
X0064506Y0073800D03*
X0054506Y0072300D03*
X0049506Y0072300D03*
X0045006Y0072300D03*
X0044006Y0056300D03*
X0049006Y0056300D03*
X0054006Y0056300D03*
X0045506Y0108800D03*
X0045506Y0133800D03*
D22*
X0058506Y0121800D03*
X0058506Y0021800D03*
X0283506Y0021800D03*
X0283506Y0121800D03*
D23*
X0213506Y0092548D02*
X0204254Y0092548D01*
X0173506Y0061800D01*
X0173506Y0037000D01*
X0153506Y0037000D02*
X0153506Y0056800D01*
X0117758Y0092548D01*
X0108506Y0092548D01*
X0108506Y0118729D01*
X0105435Y0121800D02*
X0117601Y0121800D01*
X0199412Y0121800D02*
X0211735Y0121800D01*
X0211735Y0094320D01*
M02*
