G75*
%MOIN*%
%OFA0B0*%
%FSLAX25Y25*%
%IPPOS*%
%LPD*%
%AMOC8*
5,1,8,0,0,1.08239X$1,22.5*
%
%ADD10R,0.05718X0.06899*%
%ADD11R,0.06899X0.05718*%
%ADD12R,0.06506X0.08474*%
%ADD13R,0.10443X0.16348*%
%ADD14R,0.05718X0.06506*%
%ADD15R,0.06506X0.05718*%
%ADD16C,0.02088*%
%ADD17R,0.20600X0.09600*%
%ADD18C,0.08400*%
%ADD19C,0.24222*%
D10*
X0074569Y0046800D03*
X0082443Y0046800D03*
X0072443Y0081800D03*
X0064569Y0081800D03*
D11*
X0108506Y0045737D03*
X0108506Y0037863D03*
D12*
X0117601Y0121800D03*
X0129412Y0121800D03*
X0187601Y0121800D03*
X0199412Y0121800D03*
D13*
X0213506Y0092548D03*
X0213506Y0061052D03*
X0108506Y0061052D03*
X0108506Y0092548D03*
D14*
X0097246Y0036800D03*
X0089766Y0036800D03*
D15*
X0073506Y0058060D03*
X0073506Y0065540D03*
D16*
X0083542Y0102859D02*
X0091896Y0102859D01*
X0083542Y0102859D02*
X0083542Y0140741D01*
X0091896Y0140741D01*
X0091896Y0102859D01*
X0091896Y0104946D02*
X0083542Y0104946D01*
X0083542Y0107033D02*
X0091896Y0107033D01*
X0091896Y0109120D02*
X0083542Y0109120D01*
X0083542Y0111207D02*
X0091896Y0111207D01*
X0091896Y0113294D02*
X0083542Y0113294D01*
X0083542Y0115381D02*
X0091896Y0115381D01*
X0091896Y0117468D02*
X0083542Y0117468D01*
X0083542Y0119555D02*
X0091896Y0119555D01*
X0091896Y0121642D02*
X0083542Y0121642D01*
X0083542Y0123729D02*
X0091896Y0123729D01*
X0091896Y0125816D02*
X0083542Y0125816D01*
X0083542Y0127903D02*
X0091896Y0127903D01*
X0091896Y0129990D02*
X0083542Y0129990D01*
X0083542Y0132077D02*
X0091896Y0132077D01*
X0091896Y0134164D02*
X0083542Y0134164D01*
X0083542Y0136251D02*
X0091896Y0136251D01*
X0091896Y0138338D02*
X0083542Y0138338D01*
X0083542Y0140425D02*
X0091896Y0140425D01*
X0101258Y0102859D02*
X0109612Y0102859D01*
X0101258Y0102859D02*
X0101258Y0140741D01*
X0109612Y0140741D01*
X0109612Y0102859D01*
X0109612Y0104946D02*
X0101258Y0104946D01*
X0101258Y0107033D02*
X0109612Y0107033D01*
X0109612Y0109120D02*
X0101258Y0109120D01*
X0101258Y0111207D02*
X0109612Y0111207D01*
X0109612Y0113294D02*
X0101258Y0113294D01*
X0101258Y0115381D02*
X0109612Y0115381D01*
X0109612Y0117468D02*
X0101258Y0117468D01*
X0101258Y0119555D02*
X0109612Y0119555D01*
X0109612Y0121642D02*
X0101258Y0121642D01*
X0101258Y0123729D02*
X0109612Y0123729D01*
X0109612Y0125816D02*
X0101258Y0125816D01*
X0101258Y0127903D02*
X0109612Y0127903D01*
X0109612Y0129990D02*
X0101258Y0129990D01*
X0101258Y0132077D02*
X0109612Y0132077D01*
X0109612Y0134164D02*
X0101258Y0134164D01*
X0101258Y0136251D02*
X0109612Y0136251D01*
X0109612Y0138338D02*
X0101258Y0138338D01*
X0101258Y0140425D02*
X0109612Y0140425D01*
X0207558Y0102859D02*
X0215912Y0102859D01*
X0207558Y0102859D02*
X0207558Y0140741D01*
X0215912Y0140741D01*
X0215912Y0102859D01*
X0215912Y0104946D02*
X0207558Y0104946D01*
X0207558Y0107033D02*
X0215912Y0107033D01*
X0215912Y0109120D02*
X0207558Y0109120D01*
X0207558Y0111207D02*
X0215912Y0111207D01*
X0215912Y0113294D02*
X0207558Y0113294D01*
X0207558Y0115381D02*
X0215912Y0115381D01*
X0215912Y0117468D02*
X0207558Y0117468D01*
X0207558Y0119555D02*
X0215912Y0119555D01*
X0215912Y0121642D02*
X0207558Y0121642D01*
X0207558Y0123729D02*
X0215912Y0123729D01*
X0215912Y0125816D02*
X0207558Y0125816D01*
X0207558Y0127903D02*
X0215912Y0127903D01*
X0215912Y0129990D02*
X0207558Y0129990D01*
X0207558Y0132077D02*
X0215912Y0132077D01*
X0215912Y0134164D02*
X0207558Y0134164D01*
X0207558Y0136251D02*
X0215912Y0136251D01*
X0215912Y0138338D02*
X0207558Y0138338D01*
X0207558Y0140425D02*
X0215912Y0140425D01*
X0254802Y0102859D02*
X0263156Y0102859D01*
X0254802Y0102859D02*
X0254802Y0140741D01*
X0263156Y0140741D01*
X0263156Y0102859D01*
X0263156Y0104946D02*
X0254802Y0104946D01*
X0254802Y0107033D02*
X0263156Y0107033D01*
X0263156Y0109120D02*
X0254802Y0109120D01*
X0254802Y0111207D02*
X0263156Y0111207D01*
X0263156Y0113294D02*
X0254802Y0113294D01*
X0254802Y0115381D02*
X0263156Y0115381D01*
X0263156Y0117468D02*
X0254802Y0117468D01*
X0254802Y0119555D02*
X0263156Y0119555D01*
X0263156Y0121642D02*
X0254802Y0121642D01*
X0254802Y0123729D02*
X0263156Y0123729D01*
X0263156Y0125816D02*
X0254802Y0125816D01*
X0254802Y0127903D02*
X0263156Y0127903D01*
X0263156Y0129990D02*
X0254802Y0129990D01*
X0254802Y0132077D02*
X0263156Y0132077D01*
X0263156Y0134164D02*
X0254802Y0134164D01*
X0254802Y0136251D02*
X0263156Y0136251D01*
X0263156Y0138338D02*
X0254802Y0138338D01*
X0254802Y0140425D02*
X0263156Y0140425D01*
D17*
X0293406Y0099200D03*
X0293406Y0081800D03*
X0293406Y0064400D03*
X0048606Y0064400D03*
X0048606Y0081800D03*
X0048606Y0099200D03*
D18*
X0133906Y0040700D02*
X0133906Y0032900D01*
X0153706Y0032900D02*
X0153706Y0040700D01*
X0173306Y0040700D02*
X0173306Y0032900D01*
X0193106Y0032900D02*
X0193106Y0040700D01*
D19*
X0058506Y0021800D03*
X0058506Y0121800D03*
X0283506Y0121800D03*
X0283506Y0021800D03*
M02*
