G75*
%MOIN*%
%OFA0B0*%
%FSLAX25Y25*%
%IPPOS*%
%LPD*%
%AMOC8*
5,1,8,0,0,1.08239X$1,22.5*
%
%ADD10R,0.20000X0.09000*%
%ADD11C,0.07800*%
%ADD12C,0.02581*%
%ADD13C,0.01600*%
%ADD14C,0.23622*%
D10*
X0048606Y0064400D03*
X0048606Y0099200D03*
X0293406Y0099200D03*
X0293406Y0064400D03*
D11*
X0193106Y0040700D02*
X0193106Y0032900D01*
X0173306Y0032900D02*
X0173306Y0040700D01*
X0153706Y0040700D02*
X0153706Y0032900D01*
X0133906Y0032900D02*
X0133906Y0040700D01*
D12*
X0142506Y0048800D03*
X0133506Y0058800D03*
X0117506Y0059800D03*
X0117506Y0065800D03*
X0117506Y0071800D03*
X0110506Y0073800D03*
X0104506Y0073800D03*
X0098506Y0071800D03*
X0098506Y0065800D03*
X0098506Y0059800D03*
X0098506Y0053800D03*
X0091006Y0051300D03*
X0100506Y0047800D03*
X0115506Y0047800D03*
X0117506Y0053800D03*
X0151506Y0076800D03*
X0162506Y0067800D03*
X0168506Y0076800D03*
X0180506Y0086800D03*
X0190506Y0094800D03*
X0174506Y0102800D03*
X0183506Y0112800D03*
X0179506Y0117800D03*
X0191506Y0112800D03*
X0179506Y0125800D03*
X0183506Y0131800D03*
X0190506Y0131800D03*
X0199506Y0132800D03*
X0224506Y0133800D03*
X0224506Y0128800D03*
X0224506Y0123800D03*
X0224506Y0118800D03*
X0224506Y0113800D03*
X0224506Y0108800D03*
X0224506Y0103800D03*
X0224506Y0098800D03*
X0224506Y0093800D03*
X0224506Y0088800D03*
X0224506Y0083800D03*
X0224506Y0078800D03*
X0222506Y0072800D03*
X0216506Y0072800D03*
X0210506Y0072800D03*
X0204506Y0072800D03*
X0201506Y0067800D03*
X0201506Y0061800D03*
X0192506Y0061800D03*
X0201506Y0055800D03*
X0198006Y0048800D03*
X0193006Y0048800D03*
X0188006Y0048800D03*
X0183006Y0043800D03*
X0183006Y0038800D03*
X0183006Y0033800D03*
X0183006Y0028800D03*
X0188006Y0023800D03*
X0193006Y0023800D03*
X0197506Y0023800D03*
X0202506Y0028800D03*
X0202506Y0033800D03*
X0202506Y0038800D03*
X0202506Y0043800D03*
X0205506Y0048800D03*
X0213506Y0048800D03*
X0220506Y0048800D03*
X0225506Y0054800D03*
X0225506Y0061800D03*
X0225506Y0067800D03*
X0242506Y0082800D03*
X0252506Y0087300D03*
X0256506Y0082300D03*
X0261506Y0078300D03*
X0267506Y0073800D03*
X0273506Y0072800D03*
X0279506Y0072800D03*
X0284506Y0072800D03*
X0289506Y0072800D03*
X0294506Y0072800D03*
X0277006Y0065300D03*
X0279506Y0057800D03*
X0277506Y0052800D03*
X0287006Y0055300D03*
X0292006Y0055300D03*
X0297006Y0055300D03*
X0282506Y0035658D03*
X0275006Y0032824D03*
X0270006Y0025300D03*
X0270006Y0017800D03*
X0275006Y0010300D03*
X0282506Y0007800D03*
X0292506Y0010300D03*
X0297506Y0017800D03*
X0297506Y0025300D03*
X0292506Y0032800D03*
X0257506Y0027800D03*
X0232506Y0017800D03*
X0217506Y0032800D03*
X0242506Y0047800D03*
X0252506Y0067800D03*
X0279506Y0090800D03*
X0284506Y0090800D03*
X0289506Y0090800D03*
X0294506Y0090800D03*
X0278506Y0098800D03*
X0278506Y0103800D03*
X0269506Y0103800D03*
X0268506Y0108800D03*
X0268506Y0113800D03*
X0268506Y0118800D03*
X0268506Y0123800D03*
X0268506Y0128800D03*
X0268506Y0133800D03*
X0248506Y0129800D03*
X0244506Y0133800D03*
X0248506Y0124800D03*
X0248506Y0119800D03*
X0248506Y0114800D03*
X0248506Y0109800D03*
X0248506Y0104800D03*
X0249506Y0099800D03*
X0250006Y0094800D03*
X0237506Y0102800D03*
X0237506Y0117800D03*
X0271006Y0098300D03*
X0273506Y0093800D03*
X0291006Y0108800D03*
X0296006Y0108800D03*
X0296006Y0133800D03*
X0162506Y0055800D03*
X0163506Y0046800D03*
X0160506Y0023800D03*
X0149506Y0023800D03*
X0138506Y0023800D03*
X0127506Y0023800D03*
X0120506Y0028800D03*
X0112506Y0028800D03*
X0104506Y0028800D03*
X0096506Y0028800D03*
X0088506Y0028800D03*
X0080006Y0030300D03*
X0070006Y0030300D03*
X0064006Y0035300D03*
X0066506Y0041300D03*
X0059006Y0041300D03*
X0055006Y0035300D03*
X0047506Y0030300D03*
X0044530Y0022800D03*
X0047506Y0012800D03*
X0055006Y0007800D03*
X0062506Y0007800D03*
X0070006Y0012800D03*
X0072506Y0022800D03*
X0092006Y0016300D03*
X0114506Y0016300D03*
X0066506Y0048800D03*
X0064006Y0053800D03*
X0059006Y0056300D03*
X0064006Y0058800D03*
X0063006Y0063800D03*
X0064506Y0068800D03*
X0059506Y0072300D03*
X0064506Y0073800D03*
X0054506Y0072300D03*
X0049506Y0072300D03*
X0045006Y0072300D03*
X0044006Y0056300D03*
X0049006Y0056300D03*
X0054006Y0056300D03*
X0081506Y0055800D03*
X0081506Y0060800D03*
X0081506Y0065800D03*
X0080506Y0070800D03*
X0079506Y0075800D03*
X0087006Y0079300D03*
X0092006Y0084800D03*
X0095006Y0091300D03*
X0097006Y0097800D03*
X0079506Y0098800D03*
X0077506Y0104800D03*
X0070506Y0098800D03*
X0077506Y0093800D03*
X0074506Y0090800D03*
X0069506Y0090800D03*
X0064506Y0090800D03*
X0059506Y0091300D03*
X0054506Y0091300D03*
X0049506Y0091300D03*
X0045006Y0091300D03*
X0065506Y0106300D03*
X0077506Y0109800D03*
X0077506Y0114800D03*
X0077506Y0119800D03*
X0077506Y0124800D03*
X0077506Y0129800D03*
X0075506Y0133800D03*
X0045506Y0133800D03*
X0045506Y0108800D03*
X0119506Y0111800D03*
X0126506Y0112800D03*
X0134506Y0112800D03*
X0137506Y0118800D03*
X0137506Y0125800D03*
X0135506Y0131800D03*
X0126506Y0131800D03*
X0117506Y0132800D03*
X0158506Y0130800D03*
X0160506Y0110800D03*
X0144506Y0101800D03*
X0130506Y0094800D03*
X0140506Y0086800D03*
X0160506Y0092800D03*
X0119506Y0103800D03*
X0173506Y0023800D03*
D13*
X0041706Y0005000D02*
X0041706Y0058100D01*
X0047806Y0058100D01*
X0047806Y0063600D01*
X0049406Y0063600D01*
X0049406Y0058100D01*
X0058843Y0058100D01*
X0059301Y0058223D01*
X0059712Y0058460D01*
X0060047Y0058795D01*
X0060284Y0059205D01*
X0060406Y0059663D01*
X0060406Y0063600D01*
X0049406Y0063600D01*
X0049406Y0065200D01*
X0047806Y0065200D01*
X0047806Y0070700D01*
X0041706Y0070700D01*
X0041706Y0092900D01*
X0047806Y0092900D01*
X0047806Y0098400D01*
X0049406Y0098400D01*
X0049406Y0092900D01*
X0058843Y0092900D01*
X0059301Y0093023D01*
X0059712Y0093260D01*
X0060047Y0093595D01*
X0060284Y0094005D01*
X0060406Y0094463D01*
X0060406Y0098400D01*
X0049406Y0098400D01*
X0049406Y0100000D01*
X0047806Y0100000D01*
X0047806Y0105500D01*
X0041706Y0105500D01*
X0041706Y0137301D01*
X0300228Y0137301D01*
X0300228Y0105500D01*
X0294206Y0105500D01*
X0294206Y0100000D01*
X0292606Y0100000D01*
X0292606Y0098400D01*
X0281606Y0098400D01*
X0281606Y0094463D01*
X0281729Y0094005D01*
X0281966Y0093595D01*
X0282301Y0093260D01*
X0282712Y0093023D01*
X0283169Y0092900D01*
X0292606Y0092900D01*
X0292606Y0098400D01*
X0294206Y0098400D01*
X0294206Y0092900D01*
X0300228Y0092900D01*
X0300228Y0070700D01*
X0294206Y0070700D01*
X0294206Y0065200D01*
X0292606Y0065200D01*
X0292606Y0063600D01*
X0281606Y0063600D01*
X0281606Y0059663D01*
X0281729Y0059205D01*
X0281966Y0058795D01*
X0282301Y0058460D01*
X0282712Y0058223D01*
X0283169Y0058100D01*
X0292606Y0058100D01*
X0292606Y0063600D01*
X0294206Y0063600D01*
X0294206Y0058100D01*
X0300228Y0058100D01*
X0300228Y0005000D01*
X0041706Y0005000D01*
X0041706Y0006596D02*
X0300228Y0006596D01*
X0300228Y0008194D02*
X0041706Y0008194D01*
X0041706Y0009793D02*
X0300228Y0009793D01*
X0300228Y0011391D02*
X0041706Y0011391D01*
X0041706Y0012990D02*
X0300228Y0012990D01*
X0300228Y0014588D02*
X0041706Y0014588D01*
X0041706Y0016187D02*
X0300228Y0016187D01*
X0300228Y0017785D02*
X0041706Y0017785D01*
X0041706Y0019384D02*
X0300228Y0019384D01*
X0300228Y0020982D02*
X0041706Y0020982D01*
X0041706Y0022581D02*
X0300228Y0022581D01*
X0300228Y0024179D02*
X0041706Y0024179D01*
X0041706Y0025778D02*
X0300228Y0025778D01*
X0300228Y0027376D02*
X0194551Y0027376D01*
X0194441Y0027340D02*
X0195294Y0027618D01*
X0196094Y0028025D01*
X0196820Y0028552D01*
X0197454Y0029187D01*
X0197981Y0029913D01*
X0198389Y0030712D01*
X0198666Y0031565D01*
X0198806Y0032451D01*
X0198806Y0036300D01*
X0193606Y0036300D01*
X0193606Y0027208D01*
X0194441Y0027340D01*
X0193606Y0027376D02*
X0192606Y0027376D01*
X0192606Y0027208D02*
X0192606Y0036300D01*
X0187406Y0036300D01*
X0187406Y0032451D01*
X0187547Y0031565D01*
X0187824Y0030712D01*
X0188231Y0029913D01*
X0188759Y0029187D01*
X0189393Y0028552D01*
X0190119Y0028025D01*
X0190918Y0027618D01*
X0191772Y0027340D01*
X0192606Y0027208D01*
X0191661Y0027376D02*
X0177823Y0027376D01*
X0177328Y0026881D02*
X0179325Y0028878D01*
X0180406Y0031488D01*
X0180406Y0042112D01*
X0179325Y0044722D01*
X0177328Y0046719D01*
X0174719Y0047800D01*
X0171894Y0047800D01*
X0169284Y0046719D01*
X0167287Y0044722D01*
X0166206Y0042112D01*
X0166206Y0031488D01*
X0167287Y0028878D01*
X0169284Y0026881D01*
X0171894Y0025800D01*
X0174719Y0025800D01*
X0177328Y0026881D01*
X0179365Y0028975D02*
X0188971Y0028975D01*
X0187895Y0030573D02*
X0180027Y0030573D01*
X0180406Y0032172D02*
X0187451Y0032172D01*
X0187406Y0033770D02*
X0180406Y0033770D01*
X0180406Y0035369D02*
X0187406Y0035369D01*
X0187406Y0037300D02*
X0192606Y0037300D01*
X0192606Y0036300D01*
X0193606Y0036300D01*
X0193606Y0037300D01*
X0192606Y0037300D01*
X0192606Y0046392D01*
X0191772Y0046260D01*
X0190918Y0045982D01*
X0190119Y0045575D01*
X0189393Y0045048D01*
X0188759Y0044413D01*
X0188231Y0043687D01*
X0187824Y0042888D01*
X0187547Y0042035D01*
X0187406Y0041149D01*
X0187406Y0037300D01*
X0187406Y0038566D02*
X0180406Y0038566D01*
X0180406Y0040164D02*
X0187406Y0040164D01*
X0187504Y0041763D02*
X0180406Y0041763D01*
X0179889Y0043361D02*
X0188065Y0043361D01*
X0189305Y0044960D02*
X0179087Y0044960D01*
X0177489Y0046558D02*
X0300228Y0046558D01*
X0300228Y0044960D02*
X0196907Y0044960D01*
X0196820Y0045048D02*
X0196094Y0045575D01*
X0195294Y0045982D01*
X0194441Y0046260D01*
X0193606Y0046392D01*
X0193606Y0037300D01*
X0198806Y0037300D01*
X0198806Y0041149D01*
X0198666Y0042035D01*
X0198389Y0042888D01*
X0197981Y0043687D01*
X0197454Y0044413D01*
X0196820Y0045048D01*
X0198148Y0043361D02*
X0300228Y0043361D01*
X0300228Y0041763D02*
X0198709Y0041763D01*
X0198806Y0040164D02*
X0300228Y0040164D01*
X0300228Y0038566D02*
X0198806Y0038566D01*
X0198806Y0035369D02*
X0300228Y0035369D01*
X0300228Y0036967D02*
X0193606Y0036967D01*
X0192606Y0036967D02*
X0180406Y0036967D01*
X0192606Y0035369D02*
X0193606Y0035369D01*
X0193606Y0033770D02*
X0192606Y0033770D01*
X0192606Y0032172D02*
X0193606Y0032172D01*
X0193606Y0030573D02*
X0192606Y0030573D01*
X0192606Y0028975D02*
X0193606Y0028975D01*
X0197242Y0028975D02*
X0300228Y0028975D01*
X0300228Y0030573D02*
X0198318Y0030573D01*
X0198762Y0032172D02*
X0300228Y0032172D01*
X0300228Y0033770D02*
X0198806Y0033770D01*
X0193606Y0038566D02*
X0192606Y0038566D01*
X0192606Y0040164D02*
X0193606Y0040164D01*
X0193606Y0041763D02*
X0192606Y0041763D01*
X0192606Y0043361D02*
X0193606Y0043361D01*
X0193606Y0044960D02*
X0192606Y0044960D01*
X0169124Y0046558D02*
X0157889Y0046558D01*
X0157728Y0046719D02*
X0155119Y0047800D01*
X0152294Y0047800D01*
X0149684Y0046719D01*
X0147687Y0044722D01*
X0146606Y0042112D01*
X0146606Y0031488D01*
X0147687Y0028878D01*
X0149684Y0026881D01*
X0152294Y0025800D01*
X0155119Y0025800D01*
X0157728Y0026881D01*
X0159725Y0028878D01*
X0160806Y0031488D01*
X0160806Y0042112D01*
X0159725Y0044722D01*
X0157728Y0046719D01*
X0159487Y0044960D02*
X0167525Y0044960D01*
X0166724Y0043361D02*
X0160289Y0043361D01*
X0160806Y0041763D02*
X0166206Y0041763D01*
X0166206Y0040164D02*
X0160806Y0040164D01*
X0160806Y0038566D02*
X0166206Y0038566D01*
X0166206Y0036967D02*
X0160806Y0036967D01*
X0160806Y0035369D02*
X0166206Y0035369D01*
X0166206Y0033770D02*
X0160806Y0033770D01*
X0160806Y0032172D02*
X0166206Y0032172D01*
X0166585Y0030573D02*
X0160427Y0030573D01*
X0159765Y0028975D02*
X0167247Y0028975D01*
X0168789Y0027376D02*
X0158223Y0027376D01*
X0149189Y0027376D02*
X0138423Y0027376D01*
X0137928Y0026881D02*
X0139925Y0028878D01*
X0141006Y0031488D01*
X0141006Y0042112D01*
X0139925Y0044722D01*
X0137928Y0046719D01*
X0135319Y0047800D01*
X0132494Y0047800D01*
X0129884Y0046719D01*
X0127887Y0044722D01*
X0126806Y0042112D01*
X0126806Y0031488D01*
X0127887Y0028878D01*
X0129884Y0026881D01*
X0132494Y0025800D01*
X0135319Y0025800D01*
X0137928Y0026881D01*
X0139965Y0028975D02*
X0147647Y0028975D01*
X0146985Y0030573D02*
X0140627Y0030573D01*
X0141006Y0032172D02*
X0146606Y0032172D01*
X0146606Y0033770D02*
X0141006Y0033770D01*
X0141006Y0035369D02*
X0146606Y0035369D01*
X0146606Y0036967D02*
X0141006Y0036967D01*
X0141006Y0038566D02*
X0146606Y0038566D01*
X0146606Y0040164D02*
X0141006Y0040164D01*
X0141006Y0041763D02*
X0146606Y0041763D01*
X0147124Y0043361D02*
X0140489Y0043361D01*
X0139687Y0044960D02*
X0147925Y0044960D01*
X0149524Y0046558D02*
X0138089Y0046558D01*
X0129724Y0046558D02*
X0041706Y0046558D01*
X0041706Y0044960D02*
X0128125Y0044960D01*
X0127324Y0043361D02*
X0041706Y0043361D01*
X0041706Y0041763D02*
X0126806Y0041763D01*
X0126806Y0040164D02*
X0041706Y0040164D01*
X0041706Y0038566D02*
X0126806Y0038566D01*
X0126806Y0036967D02*
X0041706Y0036967D01*
X0041706Y0035369D02*
X0126806Y0035369D01*
X0126806Y0033770D02*
X0041706Y0033770D01*
X0041706Y0032172D02*
X0126806Y0032172D01*
X0127185Y0030573D02*
X0041706Y0030573D01*
X0041706Y0028975D02*
X0127847Y0028975D01*
X0129389Y0027376D02*
X0041706Y0027376D01*
X0041706Y0048157D02*
X0300228Y0048157D01*
X0300228Y0049755D02*
X0041706Y0049755D01*
X0041706Y0051354D02*
X0300228Y0051354D01*
X0300228Y0052952D02*
X0041706Y0052952D01*
X0041706Y0054551D02*
X0300228Y0054551D01*
X0300228Y0056149D02*
X0041706Y0056149D01*
X0041706Y0057748D02*
X0300228Y0057748D01*
X0294206Y0059346D02*
X0292606Y0059346D01*
X0292606Y0060945D02*
X0294206Y0060945D01*
X0294206Y0062543D02*
X0292606Y0062543D01*
X0292606Y0064142D02*
X0049406Y0064142D01*
X0049406Y0065200D02*
X0060406Y0065200D01*
X0060406Y0069137D01*
X0060284Y0069595D01*
X0060047Y0070005D01*
X0059712Y0070340D01*
X0059301Y0070577D01*
X0058843Y0070700D01*
X0049406Y0070700D01*
X0049406Y0065200D01*
X0049406Y0065740D02*
X0047806Y0065740D01*
X0047806Y0067339D02*
X0049406Y0067339D01*
X0049406Y0068937D02*
X0047806Y0068937D01*
X0047806Y0070536D02*
X0049406Y0070536D01*
X0041706Y0072134D02*
X0300228Y0072134D01*
X0300228Y0073733D02*
X0041706Y0073733D01*
X0041706Y0075332D02*
X0300228Y0075332D01*
X0300228Y0076930D02*
X0041706Y0076930D01*
X0041706Y0078529D02*
X0300228Y0078529D01*
X0300228Y0080127D02*
X0041706Y0080127D01*
X0041706Y0081726D02*
X0300228Y0081726D01*
X0300228Y0083324D02*
X0041706Y0083324D01*
X0041706Y0084923D02*
X0300228Y0084923D01*
X0300228Y0086521D02*
X0041706Y0086521D01*
X0041706Y0088120D02*
X0300228Y0088120D01*
X0300228Y0089718D02*
X0041706Y0089718D01*
X0041706Y0091317D02*
X0300228Y0091317D01*
X0294206Y0092915D02*
X0292606Y0092915D01*
X0292606Y0094514D02*
X0294206Y0094514D01*
X0294206Y0096112D02*
X0292606Y0096112D01*
X0292606Y0097711D02*
X0294206Y0097711D01*
X0292606Y0099309D02*
X0049406Y0099309D01*
X0049406Y0100000D02*
X0060406Y0100000D01*
X0060406Y0103937D01*
X0060284Y0104395D01*
X0060047Y0104805D01*
X0059712Y0105140D01*
X0059301Y0105377D01*
X0058843Y0105500D01*
X0049406Y0105500D01*
X0049406Y0100000D01*
X0049406Y0100908D02*
X0047806Y0100908D01*
X0047806Y0102506D02*
X0049406Y0102506D01*
X0049406Y0104105D02*
X0047806Y0104105D01*
X0041706Y0105703D02*
X0300228Y0105703D01*
X0300228Y0107302D02*
X0041706Y0107302D01*
X0041706Y0108900D02*
X0300228Y0108900D01*
X0300228Y0110499D02*
X0041706Y0110499D01*
X0041706Y0112097D02*
X0300228Y0112097D01*
X0300228Y0113696D02*
X0041706Y0113696D01*
X0041706Y0115294D02*
X0300228Y0115294D01*
X0300228Y0116893D02*
X0041706Y0116893D01*
X0041706Y0118491D02*
X0300228Y0118491D01*
X0300228Y0120090D02*
X0041706Y0120090D01*
X0041706Y0121688D02*
X0300228Y0121688D01*
X0300228Y0123287D02*
X0041706Y0123287D01*
X0041706Y0124885D02*
X0300228Y0124885D01*
X0300228Y0126484D02*
X0041706Y0126484D01*
X0041706Y0128082D02*
X0300228Y0128082D01*
X0300228Y0129681D02*
X0041706Y0129681D01*
X0041706Y0131279D02*
X0300228Y0131279D01*
X0300228Y0132878D02*
X0041706Y0132878D01*
X0041706Y0134476D02*
X0300228Y0134476D01*
X0300228Y0136075D02*
X0041706Y0136075D01*
X0060361Y0104105D02*
X0281651Y0104105D01*
X0281606Y0103937D02*
X0281606Y0100000D01*
X0292606Y0100000D01*
X0292606Y0105500D01*
X0283169Y0105500D01*
X0282712Y0105377D01*
X0282301Y0105140D01*
X0281966Y0104805D01*
X0281729Y0104395D01*
X0281606Y0103937D01*
X0281606Y0102506D02*
X0060406Y0102506D01*
X0060406Y0100908D02*
X0281606Y0100908D01*
X0281606Y0097711D02*
X0060406Y0097711D01*
X0060406Y0096112D02*
X0281606Y0096112D01*
X0281606Y0094514D02*
X0060406Y0094514D01*
X0058900Y0092915D02*
X0283113Y0092915D01*
X0292606Y0100908D02*
X0294206Y0100908D01*
X0294206Y0102506D02*
X0292606Y0102506D01*
X0292606Y0104105D02*
X0294206Y0104105D01*
X0292606Y0070700D02*
X0283169Y0070700D01*
X0282712Y0070577D01*
X0282301Y0070340D01*
X0281966Y0070005D01*
X0281729Y0069595D01*
X0281606Y0069137D01*
X0281606Y0065200D01*
X0292606Y0065200D01*
X0292606Y0070700D01*
X0292606Y0070536D02*
X0294206Y0070536D01*
X0294206Y0068937D02*
X0292606Y0068937D01*
X0292606Y0067339D02*
X0294206Y0067339D01*
X0294206Y0065740D02*
X0292606Y0065740D01*
X0281606Y0065740D02*
X0060406Y0065740D01*
X0060406Y0067339D02*
X0281606Y0067339D01*
X0281606Y0068937D02*
X0060406Y0068937D01*
X0059373Y0070536D02*
X0282640Y0070536D01*
X0281606Y0062543D02*
X0060406Y0062543D01*
X0060406Y0060945D02*
X0281606Y0060945D01*
X0281691Y0059346D02*
X0060321Y0059346D01*
X0049406Y0059346D02*
X0047806Y0059346D01*
X0047806Y0060945D02*
X0049406Y0060945D01*
X0049406Y0062543D02*
X0047806Y0062543D01*
X0047806Y0092915D02*
X0049406Y0092915D01*
X0049406Y0094514D02*
X0047806Y0094514D01*
X0047806Y0096112D02*
X0049406Y0096112D01*
X0049406Y0097711D02*
X0047806Y0097711D01*
D14*
X0058506Y0121800D03*
X0058506Y0021800D03*
X0283506Y0021800D03*
X0283506Y0121800D03*
M02*
