%
M48
M72
T01C0.01181
T02C0.05200
T03C0.12598
%
T01
X47506Y12800
X55006Y7800
X62506Y7800
X70006Y12800
X72506Y22800
X70006Y30300
X64006Y35300
X66506Y41300
X59006Y41300
X55006Y35300
X47506Y30300
X44530Y22800
X80006Y30300
X88506Y28800
X96506Y28800
X104506Y28800
X112506Y28800
X120506Y28800
X127506Y23800
X138506Y23800
X149506Y23800
X160506Y23800
X173506Y23800
X183006Y28800
X183006Y33800
X183006Y38800
X183006Y43800
X188006Y48800
X193006Y48800
X198006Y48800
X202506Y43800
X202506Y38800
X202506Y33800
X202506Y28800
X197506Y23800
X193006Y23800
X188006Y23800
X217506Y32800
X232506Y17800
X257506Y27800
X270006Y25300
X270006Y17800
X275006Y10300
X282506Y7800
X292506Y10300
X297506Y17800
X297506Y25300
X292506Y32800
X282506Y35658
X275006Y32824
X277506Y52800
X279506Y57800
X287006Y55300
X292006Y55300
X297006Y55300
X277006Y65300
X279506Y72800
X284506Y72800
X289506Y72800
X294506Y72800
X273506Y72800
X267506Y73800
X261506Y78300
X256506Y82300
X252506Y87300
X242506Y82800
X224506Y83800
X224506Y88800
X224506Y93800
X224506Y98800
X224506Y103800
X224506Y108800
X224506Y113800
X224506Y118800
X224506Y123800
X224506Y128800
X224506Y133800
X244506Y133800
X248506Y129800
X248506Y124800
X248506Y119800
X248506Y114800
X248506Y109800
X248506Y104800
X249506Y99800
X250006Y94800
X237506Y102800
X237506Y117800
X268506Y118800
X268506Y123800
X268506Y128800
X268506Y133800
X296006Y133800
X268506Y113800
X268506Y108800
X269506Y103800
X271006Y98300
X273506Y93800
X279506Y90800
X284506Y90800
X289506Y90800
X294506Y90800
X278506Y98800
X278506Y103800
X291006Y108800
X296006Y108800
X252506Y67800
X225506Y67800
X225506Y61800
X225506Y54800
X220506Y48800
X213506Y48800
X205506Y48800
X201506Y55800
X201506Y61800
X201506Y67800
X192506Y61800
X204506Y72800
X210506Y72800
X216506Y72800
X222506Y72800
X224506Y78800
X190506Y94800
X180506Y86800
X168506Y76800
X162506Y67800
X151506Y76800
X140506Y86800
X130506Y94800
X119506Y103800
X119506Y111800
X126506Y112800
X134506Y112800
X137506Y118800
X137506Y125800
X135506Y131800
X126506Y131800
X117506Y132800
X77506Y129800
X75506Y133800
X77506Y124800
X77506Y119800
X77506Y114800
X77506Y109800
X77506Y104800
X79506Y98800
X77506Y93800
X74506Y90800
X69506Y90800
X64506Y90800
X59506Y91300
X54506Y91300
X49506Y91300
X45006Y91300
X65506Y106300
X70506Y98800
X95006Y91300
X97006Y97800
X92006Y84800
X87006Y79300
X79506Y75800
X80506Y70800
X81506Y65800
X81506Y60800
X81506Y55800
X91006Y51300
X98506Y53800
X98506Y59800
X98506Y65800
X98506Y71800
X104506Y73800
X110506Y73800
X117506Y71800
X117506Y65800
X117506Y59800
X117506Y53800
X115506Y47800
X100506Y47800
X66506Y48800
X64006Y53800
X59006Y56300
X64006Y58800
X63006Y63800
X64506Y68800
X59506Y72300
X64506Y73800
X54506Y72300
X49506Y72300
X45006Y72300
X44006Y56300
X49006Y56300
X54006Y56300
X92006Y16300
X114506Y16300
X163506Y46800
X162506Y55800
X142506Y48800
X133506Y58800
X160506Y92800
X144506Y101800
X160506Y110800
X174506Y102800
X183506Y112800
X179506Y117800
X191506Y112800
X179506Y125800
X183506Y131800
X190506Y131800
X199506Y132800
X158506Y130800
X45506Y133800
X45506Y108800
X242506Y47800
T02
X193106Y36800
X173306Y36800
X153706Y36800
X133906Y36800
T03
X58506Y21800
X58506Y121800
X283506Y121800
X283506Y21800
M30
